<?xml version="1.0" encoding="UTF-8"?>
<svg version="1.1" xmlns="http://www.w3.org/2000/svg" width="1472" height="704">
<path d="M0 0 C485.76 0 971.52 0 1472 0 C1472 232.32 1472 464.64 1472 704 C986.24 704 500.48 704 0 704 C0 471.68 0 239.36 0 0 Z " fill="#000000" transform="translate(0,0)"/>
<path d="M0 0 C3.70732591 0.54923347 5.02702542 1.84815639 7.3125 4.75 C13.40904646 12.48508558 19.29064938 14.71928112 28.875 16 C59.47851455 20.76526985 88.90895722 33.3809472 113 53 C113.88171875 53.680625 114.7634375 54.36125 115.671875 55.0625 C144.25553596 77.53289243 166.09848984 109.98431464 176 145 C176.27384521 145.96365479 176.27384521 145.96365479 176.55322266 146.94677734 C181.17028445 163.45468529 182.40918127 179.56342033 182.375 196.625 C182.37512085 197.55375946 182.3752417 198.48251892 182.37536621 199.43942261 C182.35162413 212.24813936 181.88462622 224.48496968 178.53369141 236.92041016 C178.00394073 238.98464448 177.60176122 241.03869261 177.23046875 243.13671875 C173.68341307 262.22336422 164.25997966 284.28002522 151.99609375 299.484375 C150.06009458 301.92426436 148.63775461 304.44613045 147.12988281 307.16162109 C145.07326292 310.5078501 142.4748805 313.38118348 139.875 316.3125 C139.29806396 316.96766602 138.72112793 317.62283203 138.12670898 318.29785156 C129.20412932 328.35320231 119.76581009 336.98922005 109 345 C107.99453125 345.75023437 106.9890625 346.50046875 105.953125 347.2734375 C91.44413829 357.68532692 76.0109548 366.49285636 59 372 C57.75605469 372.43699219 56.51210938 372.87398437 55.23046875 373.32421875 C51.195846 374.71450702 47.12088341 375.89412628 43 377 C42.2786084 377.19899902 41.5572168 377.39799805 40.81396484 377.60302734 C14.89111639 384.40840209 -17.15475635 383.74955731 -43 377 C-43.86270508 376.78037598 -44.72541016 376.56075195 -45.61425781 376.33447266 C-72.6738536 369.27218805 -96.86730643 356.26468516 -118 338 C-118.69609375 337.41605469 -119.3921875 336.83210938 -120.109375 336.23046875 C-129.69981656 328.08651941 -138.48812382 319.0945448 -146 309 C-146.79019531 307.95328125 -147.58039062 306.9065625 -148.39453125 305.828125 C-165.87181195 282.29516434 -178.18142397 254.39603126 -181.72216797 225.20556641 C-181.95270876 223.375421 -182.23089693 221.55135156 -182.52124023 219.72973633 C-183.01595212 215.87572641 -183.16161615 212.10024277 -183.16796875 208.22265625 C-183.17296135 207.12914101 -183.17296135 207.12914101 -183.17805481 206.01353455 C-183.18309147 204.47476831 -183.18546415 202.93599127 -183.18530273 201.3972168 C-183.1874648 199.09990202 -183.20558727 196.80308791 -183.22460938 194.50585938 C-183.27667431 181.18180742 -182.19326754 168.12917319 -178.8125 155.1875 C-178.59891846 154.35766602 -178.38533691 153.52783203 -178.1652832 152.67285156 C-169.2828484 119.35978518 -151.61130516 91.75162388 -128 67 C-127.360625 66.29617187 -126.72125 65.59234375 -126.0625 64.8671875 C-115.92034837 54.04587393 -102.85757887 45.254107 -90 38 C-89.32839844 37.61247559 -88.65679688 37.22495117 -87.96484375 36.82568359 C-67.47454639 25.08225065 -45.40034272 17.84315431 -21.9375 15.1875 C-12.18473779 13.77297724 -5.83894543 7.52916647 0 0 Z " fill="#205247" transform="translate(720,164)"/>
<path d="M0 0 C2 1 2 1 2.7109375 2.93359375 C3.03964844 4.17302734 3.03964844 4.17302734 3.375 5.4375 C4.40218384 9.0793336 5.56250324 12.56203078 7 16.0625 C12.52480437 29.57702147 12.52480437 29.57702147 12 35 C13.11503906 34.9484375 14.23007812 34.896875 15.37890625 34.84375 C20.49353946 34.85273684 25.05568289 36.06313224 29.9375 37.5 C30.854104 37.76844727 31.77070801 38.03689453 32.71508789 38.31347656 C54.8949818 45.07416204 74.47447249 57.74729876 89 76 C89.52722656 76.65484375 90.05445313 77.3096875 90.59765625 77.984375 C101.52538369 92.55467826 114.61796676 114.80263511 113.3984375 133.734375 C112.6220401 138.14918374 111.1280979 141.57943227 108.3125 145.125 C106.54175696 147.65463292 106.482412 148.96841315 107 152 C108.89229266 154.63624434 108.89229266 154.63624434 111 157 C116.06568501 172.19705504 106.66768198 190.64213181 100 204 C95.59776233 212.55990658 90.29572113 219.74778609 84 227 C86.54106939 229.58377644 89.04801993 231.89144281 92 234 C87.82940939 235.39019687 85.92032273 234.51698394 82.05859375 232.71484375 C73.44236848 229.72287179 63.47756878 232.92082985 55 235 C54.90203125 234.443125 54.8040625 233.88625 54.703125 233.3125 C53.88446379 229.13450486 52.92120416 225.56387429 50.875 221.8125 C49.03844822 218.41828022 48.60909773 215.90902266 49 212 C49.78375 211.9175 50.5675 211.835 51.375 211.75 C54.10190907 211.28891703 54.10190907 211.28891703 55.125 209.1875 C55.41375 208.465625 55.7025 207.74375 56 207 C56.97581759 205.64886795 57.97029741 204.31053056 59 203 C55.31245243 203.49831724 53.39509338 204.10067643 51 207 C50.67 204.69 50.34 202.38 50 200 C50.66 199.67 51.32 199.34 52 199 C52 196.36 52 193.72 52 191 C49.05272465 191.10169161 49.05272465 191.10169161 46 192 C44.54708727 194.46255685 44.54708727 194.46255685 44 197 C42.72125 197.12375 41.4425 197.2475 40.125 197.375 C36.65209064 197.69042399 36.65209064 197.69042399 34 200 C33.69324768 202.89967757 33.48826629 205.71783178 33.375 208.625 C33.31699219 209.82769531 33.31699219 209.82769531 33.2578125 211.0546875 C33.16346069 213.03607556 33.08063785 215.01800645 33 217 C34.65 217 36.3 217 38 217 C39.51536433 221.54609298 38.33650775 225.47425947 37 230 C35 233.3125 35 233.3125 33 236 C32.28426473 237.64619113 31.5974304 239.30728055 31 241 C25.61509359 241.91657981 20.45769811 242.11138159 15 242 C14.87882813 241.25234375 14.75765625 240.5046875 14.6328125 239.734375 C14.38144531 238.25710938 14.38144531 238.25710938 14.125 236.75 C13.88136719 235.28820312 13.88136719 235.28820312 13.6328125 233.796875 C13.04470732 231.1975953 12.39600113 229.25823712 11 227 C8.9664052 225.73195434 8.9664052 225.73195434 7 225 C7 222.36 7 219.72 7 217 C10.66881155 217.70554068 13.70450534 219.27735506 17 221 C17 221.66 17 222.32 17 223 C17.66 223 18.32 223 19 223 C19 221.68 19 220.36 19 219 C18.443125 218.7525 17.88625 218.505 17.3125 218.25 C12.27368421 215.52631579 12.27368421 215.52631579 10 213 C9.45779216 209.61530866 9.44007057 206.38315255 10 203 C10.66 202.34 11.32 201.68 12 201 C12.40047444 198.67724823 12.7397104 196.34260643 13 194 C8.2102679 193.76571687 8.2102679 193.76571687 4 196 C3.27034634 198.56282742 3.27034634 198.56282742 3 201 C2.37351562 201.04898438 1.74703125 201.09796875 1.1015625 201.1484375 C-0.12433594 201.26058594 -0.12433594 201.26058594 -1.375 201.375 C-2.18710937 201.44460938 -2.99921875 201.51421875 -3.8359375 201.5859375 C-6.20334191 201.82892588 -6.20334191 201.82892588 -8 204 C-9.42876221 207.77408886 -9.1113375 211.77537881 -9.0625 215.75 C-9.05573242 216.79607422 -9.05573242 216.79607422 -9.04882812 217.86328125 C-9.0371002 219.57555803 -9.01916653 221.28779033 -9 223 C-8.030625 222.979375 -7.06125 222.95875 -6.0625 222.9375 C-3 223 -3 223 -2 224 C-1.5016697 227.48831207 -1.41605059 230.00580765 -3.234375 233.1015625 C-4.76505947 235.12479395 -6.36003297 237.0647591 -8 239 C-8.3815625 239.73347656 -8.763125 240.46695313 -9.15625 241.22265625 C-11.75916649 243.73182363 -13.79595163 243.41131891 -17.30664062 243.3515625 C-18.48516602 243.30128906 -18.48516602 243.30128906 -19.6875 243.25 C-20.48478516 243.23195313 -21.28207031 243.21390625 -22.10351562 243.1953125 C-24.06952449 243.14822247 -26.03491494 243.07647899 -28 243 C-28.02578125 242.05898438 -28.0515625 241.11796875 -28.078125 240.1484375 C-28.49738702 230.90673764 -28.49738702 230.90673764 -33 223 C-33.75 219.125 -33.75 219.125 -34 216 C-32.68 216.33 -31.36 216.66 -30 217 C-30.165 216.175 -30.33 215.35 -30.5 214.5 C-31.05896045 210.58727683 -31.06807187 206.94816827 -31 203 C-30.34 203 -29.68 203 -29 203 C-29 200.69 -29 198.38 -29 196 C-30.98 196 -32.96 196 -35 196 C-35.66 197.65 -36.32 199.3 -37 201 C-38.258125 200.9175 -39.51625 200.835 -40.8125 200.75 C-44.17149655 200.73313729 -44.17149655 200.73313729 -46.9375 202.5625 C-49.61188308 208.69784942 -49.11887003 215.43573295 -49 222 C-46.69 222.33 -44.38 222.66 -42 223 C-43.80327869 232.73770492 -43.80327869 232.73770492 -47 237 C-50.29365728 238.64682864 -53.45672592 238.47343468 -56.9609375 237.3984375 C-59.92443974 236.27435044 -62.84016561 235.0690194 -65.75 233.8125 C-77.15577858 230.96105535 -85.37919442 234.0413774 -95.1328125 239.81933594 C-99.80883841 242.77609081 -103.94951568 246.24854472 -108 250 C-108.66515625 250.6084375 -109.3303125 251.216875 -110.015625 251.84375 C-113.72007749 255.38713934 -116.78724602 259.21039298 -119.73828125 263.3984375 C-121 265 -121 265 -123 266 C-123 265.01 -123 264.02 -123 263 C-123.99 263 -124.98 263 -126 263 C-121.89626671 250.92514078 -108.81651014 241.92216166 -98 236 C-97.01 235.67 -96.02 235.34 -95 235 C-94.26676204 232.98491642 -94.26676204 232.98491642 -94 231 C-93.0925 231.04125 -92.185 231.0825 -91.25 231.125 C-88.1217954 231.00468444 -86.61385994 230.6085292 -84 229 C-85.39828302 225.70519518 -87.41777095 223.13678756 -89.68066406 220.38452148 C-103.56109952 203.47507281 -114.79293791 181.48769587 -113 159 C-111.08333333 154.08333333 -111.08333333 154.08333333 -109 152 C-108.63239269 149.67182036 -108.29758419 147.3381615 -108 145 C-108.66 145 -109.32 145 -110 145 C-110 146.32 -110 147.64 -110 149 C-135.9701529 149.20638953 -135.9701529 149.20638953 -147 148 C-146 145 -146 145 -144.14233398 144.0168457 C-142.95619507 143.6005188 -142.95619507 143.6005188 -141.74609375 143.17578125 C-140.89208984 142.86962891 -140.03808594 142.56347656 -139.15820312 142.24804688 C-138.26037109 141.93931641 -137.36253906 141.63058594 -136.4375 141.3125 C-135.53580078 140.99216797 -134.63410156 140.67183594 -133.70507812 140.34179688 C-131.47351113 139.55071228 -129.2386782 138.77068213 -127 138 C-126.91363281 137.04222656 -126.82726562 136.08445312 -126.73828125 135.09765625 C-123.72996763 105.27215902 -109.73201429 81.24870001 -89 60 C-88.33742188 59.27554688 -87.67484375 58.55109375 -86.9921875 57.8046875 C-81.39840036 51.83642089 -74.84172652 47.39719166 -68 43 C-67.2457373 42.50886719 -66.49147461 42.01773438 -65.71435547 41.51171875 C-50.45924242 31.65748423 -36.06772959 24.72650307 -17.5 24.9375 C-16.4584375 24.94652344 -15.416875 24.95554688 -14.34375 24.96484375 C-13.18359375 24.98224609 -13.18359375 24.98224609 -12 25 C-12 25.99 -12 26.98 -12 28 C-12.67353516 28.12004395 -13.34707031 28.24008789 -14.04101562 28.36376953 C-47.9807544 34.51202146 -75.85941186 46.52589711 -97 75 C-109.24852544 92.96907129 -118.99405875 113.17674261 -121 135 C-119.02 135 -117.04 135 -115 135 C-114.86424561 134.44127197 -114.72849121 133.88254395 -114.58862305 133.30688477 C-113.95880796 130.72445634 -113.3231848 128.14348956 -112.6875 125.5625 C-112.47416016 124.68400391 -112.26082031 123.80550781 -112.04101562 122.90039062 C-104.61657026 92.87017131 -86.35718756 66.66757425 -60.0390625 50.140625 C-57.39402064 48.6703152 -54.72793763 47.30941006 -52 46 C-51.11957031 45.56171875 -50.23914063 45.1234375 -49.33203125 44.671875 C-39.12023512 39.77964367 -28.06395427 35.78291954 -16.625 35.9375 C-15.31402344 35.95103516 -15.31402344 35.95103516 -13.9765625 35.96484375 C-13.32429687 35.97644531 -12.67203125 35.98804688 -12 36 C-11.87625 35.40058594 -11.7525 34.80117187 -11.625 34.18359375 C-9.88537654 26.54012315 -7.44916152 19.21150282 -4.875 11.8125 C-4.33359375 10.25196899 -4.33359375 10.25196899 -3.78125 8.65991211 C-1.13249558 1.13249558 -1.13249558 1.13249558 0 0 Z " fill="#121827" transform="translate(720,215)"/>
<path d="M0 0 C1.63714966 0.0611499 1.63714966 0.0611499 3.30737305 0.12353516 C4.51329102 0.16736328 5.71920898 0.21119141 6.96166992 0.25634766 C8.23461914 0.30791016 9.50756836 0.35947266 10.8190918 0.41259766 C12.04950195 0.45642578 13.27991211 0.50025391 14.54760742 0.54541016 C22.2232367 0.83735168 29.85867929 1.32389875 37.5065918 2.03759766 C36.03748273 5.8021299 36.03748273 5.8021299 33.69067383 6.84301758 C32.97250488 6.98328369 32.25433594 7.1235498 31.5144043 7.26806641 C30.72678711 7.43113281 29.93916992 7.59419922 29.12768555 7.76220703 C28.30397461 7.91496094 27.48026367 8.06771484 26.6315918 8.22509766 C25.0091888 8.55188499 23.38679273 8.87870675 21.7644043 9.20556641 C21.04397949 9.34244873 20.32355469 9.47933105 19.58129883 9.62036133 C17.5374708 10.0313877 15.5247805 10.51614225 13.5065918 11.03759766 C13.8365918 11.69759766 14.1665918 12.35759766 14.5065918 13.03759766 C16.53975356 38.23607538 2.75343815 63.29672857 -11.79418945 82.76025391 C-13.07887923 84.48203354 -14.30177675 86.25015048 -15.4934082 88.03759766 C-14.81020508 88.26962891 -14.12700195 88.50166016 -13.4230957 88.74072266 C-9.82649254 90.33281899 -6.77830185 92.47993452 -3.6184082 94.78759766 C-2.68750366 95.46302612 -2.68750366 95.46302612 -1.73779297 96.15209961 C5.18516493 101.21352881 10.74623243 105.82493195 15.5065918 113.03759766 C17.9815918 112.04759766 17.9815918 112.04759766 20.5065918 111.03759766 C19.5165918 113.01759766 19.5165918 113.01759766 18.5065918 115.03759766 C17.8465918 115.03759766 17.1865918 115.03759766 16.5065918 115.03759766 C16.1353418 116.12041016 16.1353418 116.12041016 15.7565918 117.22509766 C13.2752793 122.80805077 9.2791516 126.40630215 4.5065918 130.03759766 C3.8465918 130.03759766 3.1865918 130.03759766 2.5065918 130.03759766 C2.5065918 130.69759766 2.5065918 131.35759766 2.5065918 132.03759766 C-9.40991911 143.324976 -27.40042787 152.84210663 -42.4934082 159.03759766 C-43.5246582 159.49521484 -44.5559082 159.95283203 -45.6184082 160.42431641 C-78.42489454 174.48423912 -114.79652899 177.17521608 -149.4934082 169.03759766 C-150.66444092 168.76471924 -150.66444092 168.76471924 -151.85913086 168.48632812 C-163.30096404 165.70479188 -173.91977361 161.15825437 -184.4934082 156.03759766 C-185.1455127 155.7245166 -185.79761719 155.41143555 -186.46948242 155.08886719 C-202.60060599 147.2373618 -222.89791091 135.56038348 -232.4934082 120.03759766 C-231.08456729 118.38822293 -229.67451523 116.73987031 -228.2590332 115.09619141 C-227.11502888 113.76236336 -225.97905014 112.42159264 -224.8527832 111.07275391 C-215.70937083 100.28438183 -202.17522242 87.81387352 -187.6418457 85.60400391 C-179.74403682 85.59288023 -172.86104759 87.19334617 -165.4934082 90.03759766 C-165.1634082 90.36759766 -164.8334082 90.69759766 -164.4934082 91.03759766 C-160.46677235 91.49312829 -160.46677235 91.49312829 -156.93481445 89.87744141 C-155.08153363 87.51187158 -154.2745371 85.18918235 -153.3059082 82.35009766 C-152.78963867 80.85929687 -152.78963867 80.85929687 -152.26293945 79.33837891 C-152.00899414 78.57912109 -151.75504883 77.81986328 -151.4934082 77.03759766 C-152.6277832 77.05822266 -153.7621582 77.07884766 -154.9309082 77.10009766 C-158.4934082 77.03759766 -158.4934082 77.03759766 -159.4934082 76.03759766 C-160.05190814 69.49145885 -160.32541049 60.71838449 -156.13793945 55.27587891 C-154.4934082 54.03759766 -154.4934082 54.03759766 -150.9934082 54.16259766 C-149.8384082 54.12134766 -148.6834082 54.08009766 -147.4934082 54.03759766 C-146.46327543 52.38938522 -145.46226192 50.72256064 -144.4934082 49.03759766 C-141.3684082 48.66259766 -141.3684082 48.66259766 -138.4934082 49.03759766 C-138.1634082 49.36759766 -137.8334082 49.69759766 -137.4934082 50.03759766 C-137.78070876 52.37704502 -138.112776 54.71151196 -138.4934082 57.03759766 C-139.1534082 57.03759766 -139.8134082 57.03759766 -140.4934082 57.03759766 C-139.9984082 63.96759766 -139.9984082 63.96759766 -139.4934082 71.03759766 C-141.4734082 70.54259766 -141.4734082 70.54259766 -143.4934082 70.03759766 C-143.06569271 71.45724908 -142.62575277 72.87322005 -142.1809082 74.28759766 C-141.93727539 75.07650391 -141.69364258 75.86541016 -141.44262695 76.67822266 C-140.61898775 79.09376251 -140.61898775 79.09376251 -138.8996582 80.88134766 C-135.9591306 85.39015665 -137.35088495 91.90676042 -137.4934082 97.03759766 C-131.8834082 97.03759766 -126.2734082 97.03759766 -120.4934082 97.03759766 C-119.5034082 95.05759766 -119.5034082 95.05759766 -118.4934082 93.03759766 C-117.4701491 91.75189645 -116.42763592 90.48133149 -115.3684082 89.22509766 C-112.30459728 85.26147819 -111.87874108 82.95493466 -112.4934082 78.03759766 C-113.9474707 77.85197266 -113.9474707 77.85197266 -115.4309082 77.66259766 C-116.4415332 77.45634766 -117.4521582 77.25009766 -118.4934082 77.03759766 C-119.89589732 74.23261943 -119.66319877 71.85258401 -119.6809082 68.72509766 C-119.69508789 67.59458984 -119.70926758 66.46408203 -119.72387695 65.29931641 C-119.4165011 60.94916656 -118.59229562 58.13648507 -115.4934082 55.03759766 C-113.3293457 54.84228516 -113.3293457 54.84228516 -110.8684082 54.91259766 C-110.05114258 54.93064453 -109.23387695 54.94869141 -108.3918457 54.96728516 C-107.76536133 54.99048828 -107.13887695 55.01369141 -106.4934082 55.03759766 C-106.5759082 54.27447266 -106.6584082 53.51134766 -106.7434082 52.72509766 C-106.4934082 50.03759766 -106.4934082 50.03759766 -104.8684082 48.16259766 C-101.72675834 46.67444772 -99.80296684 47.210208 -96.4934082 48.03759766 C-96.3684082 51.41259766 -96.3684082 51.41259766 -96.4934082 55.03759766 C-97.4834082 56.02759766 -97.4834082 56.02759766 -98.4934082 57.03759766 C-99.24979289 60.48472788 -99.30773946 63.6004852 -98.4934082 67.03759766 C-96.55514605 69.04357202 -94.66611765 70.31484891 -92.2434082 71.68603516 C-91.6659082 72.13205078 -91.0884082 72.57806641 -90.4934082 73.03759766 C-90.4934082 74.35759766 -90.4934082 75.67759766 -90.4934082 77.03759766 C-91.1534082 77.03759766 -91.8134082 77.03759766 -92.4934082 77.03759766 C-92.4934082 76.37759766 -92.4934082 75.71759766 -92.4934082 75.03759766 C-93.4009082 74.74884766 -94.3084082 74.46009766 -95.2434082 74.16259766 C-97.81543728 73.2722799 -100.10687586 72.32265353 -102.4934082 71.03759766 C-102.28194878 76.987746 -102.28194878 76.987746 -99.0559082 81.78759766 C-98.2102832 82.53009766 -97.3646582 83.27259766 -96.4934082 84.03759766 C-93.78363428 87.7796664 -94.44387115 91.58376626 -94.4934082 96.03759766 C-91.88120648 95.89030435 -89.2869351 95.69693486 -86.6809082 95.47509766 C-85.94291992 95.43835938 -85.20493164 95.40162109 -84.44458008 95.36376953 C-81.97663804 95.19874982 -81.97663804 95.19874982 -78.4934082 94.03759766 C-76.4669298 90.70527489 -76.4669298 90.70527489 -75.4934082 87.03759766 C-74.9571582 86.08884766 -74.4209082 85.14009766 -73.8684082 84.16259766 C-72.10212128 80.1483092 -71.77325634 76.38006881 -71.4934082 72.03759766 C-73.1434082 71.70759766 -74.7934082 71.37759766 -76.4934082 71.03759766 C-76.57430362 68.26618048 -76.63384882 65.49711946 -76.6809082 62.72509766 C-76.70604492 61.93941406 -76.73118164 61.15373047 -76.75708008 60.34423828 C-76.77158203 59.20825195 -76.77158203 59.20825195 -76.78637695 58.04931641 C-76.80994263 57.00457153 -76.80994263 57.00457153 -76.83398438 55.9387207 C-76.38889695 53.4542076 -75.45041142 52.57897519 -73.4934082 51.03759766 C-70.76833022 50.64681209 -68.26218864 50.90142813 -65.4934082 51.03759766 C-64.5034082 48.06759766 -64.5034082 48.06759766 -63.4934082 45.03759766 C-61.5134082 45.03759766 -59.5334082 45.03759766 -57.4934082 45.03759766 C-57.1634082 47.67759766 -56.8334082 50.31759766 -56.4934082 53.03759766 C-57.4834082 53.36759766 -58.4734082 53.69759766 -59.4934082 54.03759766 C-58.5034082 57.00759766 -58.5034082 57.00759766 -57.4934082 60.03759766 C-56.8334082 59.04759766 -56.1734082 58.05759766 -55.4934082 57.03759766 C-52.8684082 56.85009766 -52.8684082 56.85009766 -50.4934082 57.03759766 C-52.051139 60.86111871 -54.40936079 63.32965358 -57.4934082 66.03759766 C-58.4834082 66.03759766 -59.4734082 66.03759766 -60.4934082 66.03759766 C-59.70162929 70.631999 -58.91343135 74.70066446 -56.3684082 78.66259766 C-54.22858489 82.51427962 -54.33934407 84.71353103 -54.4934082 89.03759766 C-53.61040039 88.74884766 -52.72739258 88.46009766 -51.81762695 88.16259766 C-41.32330768 84.91623466 -32.65291739 83.06151153 -22.4934082 88.03759766 C-21.1734082 88.03759766 -19.8534082 88.03759766 -18.4934082 88.03759766 C-21.1334082 86.05759766 -23.7734082 84.07759766 -26.4934082 82.03759766 C-23.96768929 78.14708444 -21.3070474 74.56977992 -18.3684082 70.97509766 C-6.83206238 55.68228881 3.34624089 33.57593979 1.5065918 14.03759766 C0.17021555 10.63591266 -0.92819666 8.6028092 -3.4934082 6.03759766 C-3.6809082 3.47509766 -3.6809082 3.47509766 -3.4934082 1.03759766 C-2.4934082 0.03759766 -2.4934082 0.03759766 0 0 Z " fill="#3D4342" transform="translate(829.493408203125,360.96240234375)"/>
<path d="M0 0 C3.5432211 1.5024543 5.77071524 3.56252265 8.4375 6.3125 C9.17871094 7.07175781 9.91992188 7.83101562 10.68359375 8.61328125 C11.44800781 9.40089844 12.21242188 10.18851563 13 11 C14.66585763 12.66747531 16.33266427 14.33400266 18 16 C19.49345854 17.50033783 20.98564665 19.00193282 22.4778595 20.50350952 C24.80780819 22.84700152 27.14055885 25.18769673 29.47338867 27.52832031 C30.69499836 28.7549572 31.91570881 29.98249032 33.13549805 31.2109375 C39.05523255 37.17144263 44.93686541 43.08730732 51.33813477 48.53613281 C54.02895218 50.9063607 56.41830006 53.52296698 58.8125 56.1875 C59.56889771 57.01834106 59.56889771 57.01834106 60.34057617 57.8659668 C61.38233573 59.01039158 62.4224647 60.15630286 63.4609375 61.30371094 C64.95612777 62.9516459 66.46031384 64.59075174 67.96875 66.2265625 C76.28874115 75.24919351 84.26963353 84.46412844 92 94 C90.515 94.495 90.515 94.495 89 95 C88.5153125 94.50371094 88.030625 94.00742187 87.53125 93.49609375 C83.49414573 89.40464385 79.36257453 85.52968732 75.00390625 81.78515625 C72.19486257 79.28275281 69.58759576 76.59781337 66.94921875 73.91796875 C64.5716992 71.57856575 62.06662551 69.43449734 59.51171875 67.29296875 C57.56827786 65.63074928 55.80805467 63.80805467 54 62 C52.64771941 60.85194138 51.29334833 59.70634295 49.9375 58.5625 C47.47606663 56.45720809 46.07735482 55.14798314 44.5625 52.25 C42.41424854 49.15651789 40.23249734 48.89457845 36.6953125 47.890625 C31.5422833 46.18788492 26.79919341 43.50922295 22 41 C22 43.64 22 46.28 22 49 C16.17582358 47.39537997 12.81012528 44.5336161 8.3671875 40.58203125 C6.17266368 38.76983591 6.17266368 38.76983591 3.83203125 39.1328125 C1.63156176 40.17439934 0.20967328 41.64196358 -1.44921875 43.3984375 C-3.39683688 45.40983154 -5.431416 47.30073184 -7.5 49.1875 C-8.2321875 49.86167969 -8.964375 50.53585938 -9.71875 51.23046875 C-12.07005895 53.05434368 -14.19805491 54.03806462 -17 55 C-7.11570248 50.62809917 -7.11570248 50.62809917 -3 52 C-6.3 61.57 -9.6 71.14 -13 81 C-15.26875 81.20625 -17.5375 81.4125 -19.875 81.625 C-39.48587971 83.85907338 -57.9098977 92.44456332 -73 105 C-73.52980469 105.43940918 -74.05960938 105.87881836 -74.60546875 106.33154297 C-94.21592409 122.82691707 -106.08322985 144.66271718 -112.25073242 169.31347656 C-113.26212787 173.3426196 -114.31367438 177.18642877 -116 181 C-117.98 180.67 -119.96 180.34 -122 180 C-123.68426788 155.57811573 -106.66748588 128.63788645 -91.52807617 110.70556641 C-90.40236225 109.42435789 -89.2070339 108.20490509 -88 107 C-87.34 107 -86.68 107 -86 107 C-85.77828125 106.43796875 -85.5565625 105.8759375 -85.328125 105.296875 C-79.90244383 95.91363815 -67.33503285 89.84119145 -58 85 C-57.09765625 84.52820313 -56.1953125 84.05640625 -55.265625 83.5703125 C-42.62916335 77.40525091 -27.11638749 72.72071895 -13 73 C-13 72.01 -13 71.02 -13 70 C-40.78457962 71.68215618 -64.45024101 81.73038993 -85 101 C-85.93070313 101.84046875 -86.86140625 102.6809375 -87.8203125 103.546875 C-106.78080474 121.18845781 -125.05854335 148.43416325 -126.125 175.12890625 C-126.145625 176.09699219 -126.16625 177.06507813 -126.1875 178.0625 C-126.51862625 182.53595076 -126.51862625 182.53595076 -128.51953125 184.46484375 C-130.6494061 185.57809194 -132.6997271 186.30645038 -135 187 C-135.80050781 187.29390625 -136.60101562 187.5878125 -137.42578125 187.890625 C-140.77486658 189.09651497 -143.41635607 190 -147 190 C-147 190.66 -147 191.32 -147 192 C-135.12 192.66 -123.24 193.32 -111 194 C-111 192.68 -111 191.36 -111 190 C-110.34 190 -109.68 190 -109 190 C-108.70265704 195.05483038 -109.04424221 197.8619391 -112 202 C-116.37908507 210.75817015 -111.55873671 223.04161551 -108.83203125 231.73046875 C-104.0349149 246.04406874 -96.46068059 257.85618824 -86.375 269.0625 C-85.199375 270.5165625 -85.199375 270.5165625 -84 272 C-85 275 -85 275 -86.6875 276.25 C-89.73227042 277.23749311 -91.91911384 276.7002014 -95 276 C-95 276.7425 -95 277.485 -95 278.25 C-96 281 -96 281 -99.375 282.8125 C-100.09300781 283.1321875 -100.81101562 283.451875 -101.55078125 283.78125 C-112.1141375 289.03765694 -120.48347852 297.32395295 -127 307 C-132.27069869 302.89008099 -136.17741773 298.50733707 -139.9375 293 C-140.71444214 291.87416504 -140.71444214 291.87416504 -141.50708008 290.72558594 C-153.77875773 272.73093943 -162.7090723 253.14424098 -168 232 C-168.18933105 231.25621094 -168.37866211 230.51242187 -168.57373047 229.74609375 C-171.0585015 219.83217186 -172.73797079 210.24937347 -173 200 C-173.03641602 199.1735498 -173.07283203 198.34709961 -173.11035156 197.49560547 C-174.88961335 155.39886964 -160.27028089 111.51763151 -131.79150391 80.19555664 C-126.4881426 74.45152889 -121.11117327 68.89395806 -115 64 C-114.25878906 63.39414063 -113.51757812 62.78828125 -112.75390625 62.1640625 C-102.88841351 54.17695957 -92.84293829 46.44773256 -82.40527344 39.22314453 C-79.19418385 37.08255465 -79.19418385 37.08255465 -77 34 C-73.00951059 33.68702044 -70.7225803 33.52948259 -67.3125 35.75 C-65.18960719 37.81551733 -63.0943533 39.9056467 -61 42 C-57.8551016 45.05990114 -56.64734836 45.95755093 -52.1875 46.25 C-51.135625 46.1675 -50.08375 46.085 -49 46 C-48.34 44.35 -47.68 42.7 -47 41 C-46.34 41 -45.68 41 -45 41 C-45 40.34 -45 39.68 -45 39 C-44.34 39.33 -43.68 39.66 -43 40 C-43.33 40.66 -43.66 41.32 -44 42 C-40.48392851 40.02998892 -37.70164204 37.94943237 -34.86328125 35.09375 C-33.75049805 33.97806641 -33.75049805 33.97806641 -32.61523438 32.83984375 C-31.85533203 32.06769531 -31.09542969 31.29554688 -30.3125 30.5 C-29.54099609 29.72785156 -28.76949219 28.95570313 -27.97460938 28.16015625 C-23.67775769 23.83962998 -23.67775769 23.83962998 -20 19 C-19.34 19 -18.68 19 -18 19 C-17.73050537 18.40525879 -17.46101074 17.81051758 -17.18334961 17.19775391 C-16.00333033 15.00618519 -14.82482198 13.58032551 -13.06640625 11.8359375 C-12.49986328 11.27132812 -11.93332031 10.70671875 -11.34960938 10.125 C-10.75986328 9.5475 -10.17011719 8.97 -9.5625 8.375 C-8.68368164 7.49714844 -8.68368164 7.49714844 -7.78710938 6.6015625 C-5.26007718 4.10034562 -2.97575385 1.9838359 0 0 Z " fill="#1D4E44" transform="translate(721,170)"/>
<path d="M0 0 C3.70732591 0.54923347 5.02702542 1.84815639 7.3125 4.75 C13.40904646 12.48508558 19.29064938 14.71928112 28.875 16 C59.47851455 20.76526985 88.90895722 33.3809472 113 53 C113.88171875 53.680625 114.7634375 54.36125 115.671875 55.0625 C144.25553596 77.53289243 166.09848984 109.98431464 176 145 C176.27384521 145.96365479 176.27384521 145.96365479 176.55322266 146.94677734 C181.17028445 163.45468529 182.40918127 179.56342033 182.375 196.625 C182.37512085 197.55375946 182.3752417 198.48251892 182.37536621 199.43942261 C182.35162413 212.24813936 181.88462622 224.48496968 178.53369141 236.92041016 C178.00394073 238.98464448 177.60176122 241.03869261 177.23046875 243.13671875 C173.68341307 262.22336422 164.25997966 284.28002522 151.99609375 299.484375 C150.06009458 301.92426436 148.63775461 304.44613045 147.12988281 307.16162109 C145.07326292 310.5078501 142.4748805 313.38118348 139.875 316.3125 C139.29806396 316.96766602 138.72112793 317.62283203 138.12670898 318.29785156 C129.20412932 328.35320231 119.76581009 336.98922005 109 345 C107.99453125 345.75023437 106.9890625 346.50046875 105.953125 347.2734375 C91.44413829 357.68532692 76.0109548 366.49285636 59 372 C57.75605469 372.43699219 56.51210938 372.87398437 55.23046875 373.32421875 C51.195846 374.71450702 47.12088341 375.89412628 43 377 C42.2786084 377.19899902 41.5572168 377.39799805 40.81396484 377.60302734 C14.89111639 384.40840209 -17.15475635 383.74955731 -43 377 C-43.86270508 376.78037598 -44.72541016 376.56075195 -45.61425781 376.33447266 C-72.6738536 369.27218805 -96.86730643 356.26468516 -118 338 C-118.69609375 337.41605469 -119.3921875 336.83210938 -120.109375 336.23046875 C-129.69981656 328.08651941 -138.48812382 319.0945448 -146 309 C-146.79019531 307.95328125 -147.58039062 306.9065625 -148.39453125 305.828125 C-165.87181195 282.29516434 -178.18142397 254.39603126 -181.72216797 225.20556641 C-181.95270876 223.375421 -182.23089693 221.55135156 -182.52124023 219.72973633 C-183.01595212 215.87572641 -183.16161615 212.10024277 -183.16796875 208.22265625 C-183.17296135 207.12914101 -183.17296135 207.12914101 -183.17805481 206.01353455 C-183.18309147 204.47476831 -183.18546415 202.93599127 -183.18530273 201.3972168 C-183.1874648 199.09990202 -183.20558727 196.80308791 -183.22460938 194.50585938 C-183.27667431 181.18180742 -182.19326754 168.12917319 -178.8125 155.1875 C-178.59891846 154.35766602 -178.38533691 153.52783203 -178.1652832 152.67285156 C-169.2828484 119.35978518 -151.61130516 91.75162388 -128 67 C-127.360625 66.29617187 -126.72125 65.59234375 -126.0625 64.8671875 C-115.92034837 54.04587393 -102.85757887 45.254107 -90 38 C-89.32839844 37.61247559 -88.65679688 37.22495117 -87.96484375 36.82568359 C-67.47454639 25.08225065 -45.40034272 17.84315431 -21.9375 15.1875 C-12.18473779 13.77297724 -5.83894543 7.52916647 0 0 Z M-15.6015625 21.37109375 C-17.21713018 22.89510595 -17.21713018 22.89510595 -17 25 C-17.99 25.33 -18.98 25.66 -20 26 C-21.44218652 27.42268711 -21.44218652 27.42268711 -22.875 29.25 C-26.33199586 33.32272688 -29.99092687 37.14611989 -33.75 40.9375 C-34.31702637 41.51725586 -34.88405273 42.09701172 -35.46826172 42.69433594 C-39.64411568 46.88137189 -39.64411568 46.88137189 -43 48 C-40.87457553 44.70192755 -38.89103455 41.65975178 -36 39 C-32.79216787 35.88382022 -29.71372533 32.66855973 -26.6875 29.375 C-25.99011719 28.61960938 -25.29273438 27.86421875 -24.57421875 27.0859375 C-22.69880553 25.03644747 -22.69880553 25.03644747 -23 22 C-28.74457972 21.77608493 -33.89459547 22.59489633 -39.5 23.8125 C-40.72396484 24.0609668 -40.72396484 24.0609668 -41.97265625 24.31445312 C-46.95982869 25.37512784 -51.33083284 26.90264893 -56 29 C-57.86203559 29.61935512 -59.72435937 30.23808072 -61.59301758 30.8371582 C-77.73904304 36.10406426 -92.93461348 44.13469334 -106 55 C-107.47919922 56.19689453 -107.47919922 56.19689453 -108.98828125 57.41796875 C-110.84146995 58.9226107 -112.68875675 60.43458138 -114.52734375 61.95703125 C-116.20395162 63.34228546 -117.90157378 64.70242017 -119.6171875 66.0390625 C-121.73123085 67.77881621 -123.43272529 69.47391211 -125.1875 71.5625 C-127.97627148 74.84021193 -130.86564743 77.98877289 -133.8125 81.125 C-147.40514241 96.0933328 -158.83551807 114.10173806 -166 133 C-166.64001953 134.58554687 -166.64001953 134.58554687 -167.29296875 136.203125 C-173.26080527 151.70113737 -177.08773204 168.70116591 -177.23828125 185.31640625 C-177.24793915 186.20222885 -177.25759705 187.08805145 -177.26754761 188.00071716 C-177.29230028 190.8546875 -177.30492977 193.70843402 -177.3125 196.5625 C-177.31545074 197.53131104 -177.31840149 198.50012207 -177.32144165 199.49829102 C-177.33136253 213.76895752 -176.66638765 227.14098425 -173 241 C-172.76152344 242.06089844 -172.52304687 243.12179687 -172.27734375 244.21484375 C-169.17219064 257.17467441 -163.10160225 269.34239707 -156.98486328 281.10400391 C-156.05127484 282.90128895 -155.13261277 284.70630442 -154.21484375 286.51171875 C-148.52040622 297.47253815 -141.51847039 306.72336281 -133.1015625 315.6875 C-131 318 -131 318 -129 321 C-128.34 321 -127.68 321 -127 321 C-126.76925781 321.56460937 -126.53851562 322.12921875 -126.30078125 322.7109375 C-112.66945996 346.69878818 -72.90758002 362.74536504 -48 370 C-46.75347656 370.36867188 -45.50695312 370.73734375 -44.22265625 371.1171875 C-15.22544209 379.26181608 17.18406225 377.99294678 45.90429688 369.59326172 C47.98394388 369.00454524 50.07080745 368.48290982 52.171875 367.9765625 C63.13752464 365.1792029 73.19020452 360.13913971 83.1796875 354.94042969 C84.76626022 354.12075719 86.36645552 353.32756005 87.96875 352.5390625 C96.1207011 348.39115797 102.99773328 342.81804607 110 337 C110.61375488 336.49065918 111.22750977 335.98131836 111.85986328 335.45654297 C123.7328236 325.55047935 135.02607254 315.43872574 143 302 C144.03107889 300.55488685 145.07331651 299.11768794 146.125 297.6875 C154.58314256 285.62483255 160.76879222 272.73106789 166 259 C166.25491211 258.33766357 166.50982422 257.67532715 166.77246094 256.99291992 C178.08588672 227.29337575 182.01234757 191.09913881 174 160 C173.80132324 159.195625 173.60264648 158.39125 173.39794922 157.5625 C165.18359814 124.87738172 150.20440044 97.37668813 127 73 C126.30777344 72.24332031 125.61554688 71.48664063 124.90234375 70.70703125 C110.51236709 55.48526403 91.79271127 43.77713304 72.9375 34.91113281 C71.09753422 34.04586665 69.26720217 33.16020105 67.4375 32.2734375 C59.88698376 28.78990387 52.77844663 26.97358847 44.64453125 25.65625 C40.84722675 24.97249099 37.44542415 23.89123596 33.83984375 22.5625 C31.20157698 21.75589615 28.72998256 21.79000134 26 22 C27.28062485 23.7074998 28.61767557 25.37373596 30 27 C30.66 27 31.32 27 32 27 C32.26192139 27.58338135 32.52384277 28.1667627 32.79370117 28.76782227 C34.06699252 31.12396532 35.46015228 32.77554189 37.30078125 34.71484375 C37.94853516 35.40126953 38.59628906 36.08769531 39.26367188 36.79492188 C40.2778418 37.85549805 40.2778418 37.85549805 41.3125 38.9375 C41.97701172 39.64068359 42.64152344 40.34386719 43.32617188 41.06835938 C45.20821439 43.05464955 47.10247568 45.02851234 49 47 C49.50321777 47.53383301 50.00643555 48.06766602 50.52490234 48.61767578 C51.64425672 49.7838582 52.81677607 50.89867499 54 52 C54.66 52 55.32 52 56 52 C56.0825 52.61875 56.165 53.2375 56.25 53.875 C56.81258459 56.18437567 56.81258459 56.18437567 59.0625 57.25 C59.701875 57.4975 60.34125 57.745 61 58 C61 58.66 61 59.32 61 60 C57.18437605 58.70176525 54.92909121 57.25033142 52.1875 54.3125 C49.70871106 51.67515314 47.15255365 49.24621701 44.40625 46.89453125 C39.11923457 42.31220568 34.23469669 37.34241829 29.3125 32.375 C28.38888672 31.446875 27.46527344 30.51875 26.51367188 29.5625 C24.79741212 27.83759098 23.08219003 26.11164833 21.3684082 24.38427734 C19.70771976 22.71246172 18.04342408 21.04422523 16.37646484 19.37866211 C14.6309255 17.63150885 12.8958731 15.87745568 11.17578125 14.10546875 C10.2213791 13.13278804 9.26695188 12.16013192 8.3125 11.1875 C7.82716797 10.68541016 7.34183594 10.18332031 6.84179688 9.66601562 C5.59875394 8.40582727 4.30300108 7.19808956 3 6 C-3.1533034 6 -11.27192371 17.13557754 -15.6015625 21.37109375 Z " fill="#09362D" transform="translate(720,164)"/>
<path d="M0 0 C4.39131785 1.51077449 6.31736792 4.91662276 8.75 8.625 C9.16121094 9.23601562 9.57242188 9.84703125 9.99609375 10.4765625 C11.00551256 11.97895328 12.0038647 13.48876909 13 15 C12.34 16.32 11.68 17.64 11 19 C10.34 19 9.68 19 9 19 C7.61767557 17.37373596 6.28062485 15.7074998 5 14 C4.94577053 15.4370809 4.90710277 16.87475462 4.875 18.3125 C4.85179687 19.11300781 4.82859375 19.91351563 4.8046875 20.73828125 C4.84182678 23.28388576 4.84182678 23.28388576 7 26 C7 27.32 7 28.64 7 30 C7.66 30 8.32 30 9 30 C9.53625 30.94875 10.0725 31.8975 10.625 32.875 C11.41609403 34.25032954 12.20783413 35.62528754 13 37 C13.47050781 37.83015625 13.94101562 38.6603125 14.42578125 39.515625 C17.61014086 45.08270541 17.61014086 45.08270541 21.8125 49.875 C24.00743804 52.00722553 24.66794978 53.01154806 25 56 C25.66 56 26.32 56 27 56 C27 56.99 27 57.98 27 59 C27.66 59 28.32 59 29 59 C29.96287716 60.3755388 30.91462516 61.76004195 31.81274414 63.17871094 C33.04597038 65.07052005 34.37280144 66.84817613 35.74609375 68.640625 C38.5111598 72.30381144 41.12281908 76.04901151 43.69116211 79.85205078 C45.36835199 82.33260476 47.07012002 84.79514432 48.7734375 87.2578125 C50.72019101 90.08359923 52.58629115 92.92506859 54.3515625 95.8671875 C58.23144689 102.04136108 58.23144689 102.04136108 64.6640625 104.9453125 C68.17236922 105.21950882 71.49377788 105.25935071 75 105 C75 103.35 75 101.7 75 100 C76.32 100 77.64 100 79 100 C79 105.61 79 111.22 79 117 C77.68 117 76.36 117 75 117 C75 114.69 75 112.38 75 110 C74.20489014 110.15629883 73.40978027 110.31259766 72.59057617 110.47363281 C68.23496063 111.11215237 63.94682018 111.28778528 59.55078125 111.421875 C58.65634811 111.44977112 57.76191498 111.47766724 56.84037781 111.50640869 C54.95868014 111.56257111 53.0769058 111.61621479 51.19506836 111.66748047 C48.31106117 111.75004119 45.42824179 111.85348593 42.54492188 111.95703125 C40.71357805 112.00910804 38.8821981 112.05993288 37.05078125 112.109375 C36.18826248 112.14359558 35.32574371 112.17781616 34.43708801 112.21307373 C33.63582993 112.23009338 32.83457184 112.24711304 32.0090332 112.26464844 C31.30543167 112.28605896 30.60183014 112.30746948 29.87690735 112.32952881 C27.40977061 111.89637337 26.57347534 110.90072669 25 109 C23.54321123 106.72468109 22.29838196 104.37290496 21 102 C19.43413992 103.56586008 19.38905307 105.4251488 18.9375 107.5625 C18.67259766 108.80193359 18.67259766 108.80193359 18.40234375 110.06640625 C18.26957031 110.70449219 18.13679687 111.34257812 18 112 C18.969375 112.350625 19.93875 112.70125 20.9375 113.0625 C24 115 24 115 25.0625 118.5 C25 122 25 122 23.765625 123.734375 C21.47000669 125.37990671 20.44185176 125.18765175 17.6875 124.75 C16.88441406 124.63269531 16.08132813 124.51539063 15.25390625 124.39453125 C13.5408093 124.09466506 11.83178288 123.77143578 10.125 123.4375 C2.6001844 122.38402582 -4.38496393 122.92063496 -11.7734375 124.5390625 C-14.6399818 125.13248746 -17.09293062 125.42542479 -20 125 C-21.9375 123.375 -21.9375 123.375 -23 121 C-22.9375 117.875 -22.9375 117.875 -22 115 C-19.14088761 112.83101819 -17.71556422 113 -14 113 C-14.33 111.02 -14.66 109.04 -15 107 C-15.66 107 -16.32 107 -17 107 C-17.33 105.68 -17.66 104.36 -18 103 C-20.52588702 105.36292656 -21.88820837 106.66462511 -23 110 C-39.5 110 -56 110 -73 110 C-73 112.31 -73 114.62 -73 117 C-74.32 117 -75.64 117 -77 117 C-77 111.39 -77 105.78 -77 100 C-75.68 100.33 -74.36 100.66 -73 101 C-72.67 102.65 -72.34 104.3 -72 106 C-63.20304307 106.61532737 -63.20304307 106.61532737 -55.65234375 102.91796875 C-53.89928274 100.34809689 -52.41554516 97.76845558 -51 95 C-49.72923318 92.93853382 -48.4035333 90.97534316 -47 89 C-46.34 89 -45.68 89 -45 89 C-44.71318359 88.41573242 -44.42636719 87.83146484 -44.13085938 87.22949219 C-42.39952175 83.81615557 -40.44833738 80.54287691 -38.5 77.25 C-38.09652344 76.55261719 -37.69304688 75.85523438 -37.27734375 75.13671875 C-36.24143571 73.38969231 -35.12662967 71.6899445 -34 70 C-33.34 70 -32.68 70 -32 70 C-31.773125 69.484375 -31.54625 68.96875 -31.3125 68.4375 C-29.81178222 65.65045269 -28.01855144 63.21166052 -26.12109375 60.68359375 C-24.81448821 58.88113235 -24.81448821 58.88113235 -24 56 C-23.34 56 -22.68 56 -22 56 C-21.731875 55.278125 -21.46375 54.55625 -21.1875 53.8125 C-20.00098638 51.00233617 -18.72514361 48.51583443 -17 46 C-16.34 46 -15.68 46 -15 46 C-15 45.34 -15 44.68 -15 44 C-14.278125 43.38125 -13.55625 42.7625 -12.8125 42.125 C-9.23886336 38.73358845 -7.88280671 34.37193868 -6.1328125 29.859375 C-5 27 -5 27 -3.25 23.8125 C-1.53429245 19.95215801 -1.2696532 16.18427383 -1 12 C-1.66 12 -2.32 12 -3 12 C-3.28875 12.598125 -3.5775 13.19625 -3.875 13.8125 C-5 16 -5 16 -7 19 C-8.32 18.67 -9.64 18.34 -11 18 C-10.40149598 15.01034358 -9.51087951 13.00221502 -7.71484375 10.546875 C-7.26689453 9.928125 -6.81894531 9.309375 -6.35742188 8.671875 C-5.88884766 8.03765625 -5.42027344 7.4034375 -4.9375 6.75 C-4.46505859 6.1003125 -3.99261719 5.450625 -3.50585938 4.78125 C-2.34276471 3.18346338 -1.17211399 1.59118197 0 0 Z " fill="#4B6252" transform="translate(720,276)"/>
<path d="M0 0 C-0.54599469 4.05730536 -2.63878528 6.12704635 -5.375 9.0625 C-6.16648437 9.91972656 -6.95796875 10.77695313 -7.7734375 11.66015625 C-9.04227811 12.99355191 -10.32191975 14.31729889 -11.6328125 15.609375 C-13.05467169 17.05560892 -14.26305451 18.58184961 -15.5 20.1875 C-16.325 21.115625 -17.15 22.04375 -18 23 C-18.99 23 -19.98 23 -21 23 C-21 23.66 -21 24.32 -21 25 C-21.66 25 -22.32 25 -23 25 C-23.144375 25.804375 -23.28875 26.60875 -23.4375 27.4375 C-24 30 -24 30 -25 31 C-31.46153846 31.35897436 -31.46153846 31.35897436 -35 29 C-35 28.34 -35 27.68 -35 27 C-36.0828125 26.6596875 -36.0828125 26.6596875 -37.1875 26.3125 C-40.54149161 24.74730392 -42.50485584 22.70307284 -45 20 C-46.96822886 18.03177114 -50.34808709 18.33751619 -53 18 C-53.19851563 18.56332031 -53.39703125 19.12664062 -53.6015625 19.70703125 C-55.55181495 22.90479155 -58.3307109 24.62916619 -61.375 26.6875 C-62.653089 27.5770552 -63.93042053 28.4676996 -65.20703125 29.359375 C-65.84721191 29.80345703 -66.48739258 30.24753906 -67.14697266 30.70507812 C-76.54313414 37.27124947 -85.38915187 44.44871458 -94 52 C-94.55896973 52.48903809 -95.11793945 52.97807617 -95.69384766 53.48193359 C-126.49856817 80.6251111 -145.52216907 122.36585932 -148.21777344 163.30761719 C-148.43923159 169.39314077 -148.36045625 175.44783743 -148.1015625 181.53076172 C-148.01714954 183.58305177 -147.98613795 185.63745453 -147.96875 187.69140625 C-147.2385277 212.48853869 -137.63941577 237.39119612 -126 259 C-125.51877686 259.91023926 -125.51877686 259.91023926 -125.02783203 260.83886719 C-115.41706691 279.53687112 -115.41706691 279.53687112 -100 292 C-99.30959426 293.65697379 -98.6469365 295.3255761 -98 297 C-94.98808086 301.25798498 -91.47316558 304.24094561 -87.375 307.375 C-86.75109375 307.85686768 -86.1271875 308.33873535 -85.484375 308.83520508 C-62.80252439 326.25204278 -38.18112064 338.56638524 -10 344 C-8.85789062 344.27972656 -7.71578125 344.55945313 -6.5390625 344.84765625 C3.68532889 347.11388733 13.82110377 347.29639133 24.25 347.3125 C24.97884399 347.31599457 25.70768799 347.31948914 26.45861816 347.3230896 C39.41602588 347.3575101 51.61107232 346.08794908 64 342.125 C65.73434024 341.58322205 67.46871522 341.04155529 69.203125 340.5 C70.4396582 340.10941406 70.4396582 340.10941406 71.70117188 339.7109375 C73.65995552 339.10516244 75.63349136 338.54743096 77.609375 338 C95.93747607 332.89366338 113.77350257 322.10601373 128.80078125 310.59375 C130.80884551 309.13852758 132.75017883 308.02966644 135 307 C135 306.34 135 305.68 135 305 C136.53907714 303.69589647 138.13281187 302.45588017 139.75 301.25 C144.07778764 297.90958844 144.07778764 297.90958844 147.375 293.625 C149.14658095 290.76321538 150.09455895 290.40585857 153 289 C154.00871218 287.33859171 155.00683333 285.67074766 156 284 C157.54393736 282.00631889 159.10833688 280.02839694 160.6875 278.0625 C165.8800196 271.42967098 170.1151327 264.47026753 174 257 C174.59554688 255.86304688 175.19109375 254.72609375 175.8046875 253.5546875 C195.71474508 213.29212662 199.0901479 164.62962703 185.4375 122 C175.98719634 94.14611833 160.3428385 66.42855671 137 48 C134.1875 45.375 134.1875 45.375 132 43 C132 42.34 132 41.68 132 41 C131.13375 40.8453125 131.13375 40.8453125 130.25 40.6875 C127.64338842 39.89103535 126.0264689 38.80934723 124 37 C124 36.34 124 35.68 124 35 C123.26394531 34.90847656 122.52789063 34.81695312 121.76953125 34.72265625 C118.55394976 33.88361172 117.10072452 32.68711608 114.6875 30.4375 C113.64142578 29.47650391 113.64142578 29.47650391 112.57421875 28.49609375 C112.05472656 28.00238281 111.53523438 27.50867188 111 27 C111.33 25.68 111.66 24.36 112 23 C117.3025907 23.40946646 120.58402171 26.34763389 124.625 29.5 C125.69113525 30.31911865 125.69113525 30.31911865 126.77880859 31.15478516 C128.85999673 32.76051525 130.93040678 34.37937164 133 36 C134.485 37.14082031 134.485 37.14082031 136 38.3046875 C154.16212894 52.62898562 167.95823304 69.79010219 179 90 C179.32983887 90.59780273 179.65967773 91.19560547 179.99951172 91.81152344 C187.05378096 104.74004825 191.98986535 118.61724318 195.8125 132.8125 C196.10471436 133.88504028 196.10471436 133.88504028 196.40283203 134.97924805 C199.62748312 147.57811613 200.37968939 160.13178753 200.3125 173.0625 C200.31001251 173.83034821 200.30752502 174.59819641 200.30496216 175.38931274 C200.17966533 200.47308711 195.9632709 224.21968911 185 247 C184.66355469 247.71075684 184.32710937 248.42151367 183.98046875 249.15380859 C179.21169261 259.14091737 174.1402312 269.18106038 167.45703125 278.046875 C165.93496962 280.00551099 165.93496962 280.00551099 164.66796875 282.32421875 C162.51766627 285.77376723 159.9732713 288.74806557 157.3125 291.8125 C156.7750415 292.43342529 156.23758301 293.05435059 155.68383789 293.6940918 C148.90239122 301.471465 141.76127174 308.3372157 133.63378906 314.71679688 C132.49121389 315.61419303 131.35287189 316.51699331 130.21777344 317.42382812 C115.36550006 329.24707014 99.61878191 337.11647157 82 344 C81.20263428 344.33394775 80.40526855 344.66789551 79.58374023 345.01196289 C77.07685205 345.97061133 74.66749962 346.63280783 72.05078125 347.21875 C71.11943359 347.42886719 70.18808594 347.63898438 69.22851562 347.85546875 C67.78508789 348.17451172 67.78508789 348.17451172 66.3125 348.5 C64.89807617 348.81904297 64.89807617 348.81904297 63.45507812 349.14453125 C18.2653923 359.26950553 -28.66032866 353.71433151 -68.59375 329.25 C-81.12190556 321.26788651 -93.95038449 312.02153191 -104 301 C-104 300.34 -104 299.68 -104 299 C-104.99 298.67 -105.98 298.34 -107 298 C-109.54766179 295.52973553 -111.73854198 292.73184129 -114 290 C-114.64453125 289.24203125 -115.2890625 288.4840625 -115.953125 287.703125 C-121.34138684 281.21175444 -125.81534371 274.31531207 -130 267 C-130.35707031 266.37770508 -130.71414063 265.75541016 -131.08203125 265.11425781 C-142.34014966 245.25342524 -149.31324497 225.53947961 -153 203 C-153.17813232 202.09193604 -153.35626465 201.18387207 -153.53979492 200.24829102 C-154.13197036 196.06850631 -154.20136183 191.96298618 -154.23828125 187.74609375 C-154.246353 186.84995865 -154.25442474 185.95382355 -154.26274109 185.03053284 C-154.27654184 183.1301565 -154.28728183 181.2297558 -154.29516602 179.3293457 C-154.30656149 177.42822758 -154.32680964 175.52713816 -154.35668945 173.6262207 C-154.8453054 142.45033963 -146.68629953 111.48256149 -130 85 C-129.35160156 83.96488281 -128.70320312 82.92976563 -128.03515625 81.86328125 C-121.37441548 71.56221483 -113.54680583 62.41767528 -105.16113281 53.50219727 C-103.01365935 51.21521693 -100.95491574 48.94091161 -99.05078125 46.4453125 C-96.52284521 43.43104972 -93.61265247 41.11975869 -90.5 38.75 C-89.87617432 38.27111328 -89.25234863 37.79222656 -88.60961914 37.29882812 C-87.33656632 36.32277235 -86.06191919 35.34879229 -84.78564453 34.37695312 C-83.21965273 33.16937947 -81.68332344 31.92354015 -80.15234375 30.671875 C-67.351526 20.4312208 -52.26185987 13.2258056 -36.71875 8.203125 C-33.54655548 7.17682677 -30.47479249 6.03418292 -27.375 4.8125 C-18.61328116 1.61058746 -9.32954625 -0.23921913 0 0 Z " fill="#2B6959" transform="translate(697,186)"/>
<path d="M0 0 C3.5432211 1.5024543 5.77071524 3.56252265 8.4375 6.3125 C9.17871094 7.07175781 9.91992188 7.83101562 10.68359375 8.61328125 C11.44800781 9.40089844 12.21242188 10.18851563 13 11 C14.66585763 12.66747531 16.33266427 14.33400266 18 16 C19.49345854 17.50033783 20.98564665 19.00193282 22.4778595 20.50350952 C24.80780819 22.84700152 27.14055885 25.18769673 29.47338867 27.52832031 C30.69499836 28.7549572 31.91570881 29.98249032 33.13549805 31.2109375 C39.05523255 37.17144263 44.93686541 43.08730732 51.33813477 48.53613281 C54.02895218 50.9063607 56.41830006 53.52296698 58.8125 56.1875 C59.31676514 56.74139404 59.82103027 57.29528809 60.34057617 57.8659668 C61.38233573 59.01039158 62.4224647 60.15630286 63.4609375 61.30371094 C64.95612777 62.9516459 66.46031384 64.59075174 67.96875 66.2265625 C76.28874115 75.24919351 84.26963353 84.46412844 92 94 C91.01 94.33 90.02 94.66 89 95 C88.5153125 94.50371094 88.030625 94.00742187 87.53125 93.49609375 C83.49414573 89.40464385 79.36257453 85.52968732 75.00390625 81.78515625 C72.19486257 79.28275281 69.58759576 76.59781337 66.94921875 73.91796875 C64.5716992 71.57856575 62.06662551 69.43449734 59.51171875 67.29296875 C57.56827786 65.63074928 55.80805467 63.80805467 54 62 C52.64771941 60.85194138 51.29334833 59.70634295 49.9375 58.5625 C47.47606663 56.45720809 46.07735482 55.14798314 44.5625 52.25 C42.41424854 49.15651789 40.23249734 48.89457845 36.6953125 47.890625 C31.5422833 46.18788492 26.79919341 43.50922295 22 41 C22 43.64 22 46.28 22 49 C16.17582358 47.39537997 12.81012528 44.5336161 8.3671875 40.58203125 C6.17266368 38.76983591 6.17266368 38.76983591 3.83203125 39.1328125 C1.63327401 40.17358885 0.21217573 41.63924091 -1.4453125 43.39453125 C-3.41462556 45.42816861 -5.47202719 47.34115844 -7.5625 49.25 C-8.30628906 49.93578125 -9.05007813 50.6215625 -9.81640625 51.328125 C-12 53 -12 53 -16 54 C-16 49.38 -16 44.76 -16 40 C-17.258125 40.99 -18.51625 41.98 -19.8125 43 C-23.625 46 -23.625 46 -27 46 C-27.495 43.525 -27.495 43.525 -28 41 C-28.88042969 41.42152344 -29.76085937 41.84304687 -30.66796875 42.27734375 C-31.82941406 42.82519531 -32.99085938 43.37304688 -34.1875 43.9375 C-35.91033203 44.75541016 -35.91033203 44.75541016 -37.66796875 45.58984375 C-40.51466736 46.79460131 -42.96027845 47.54776271 -46 48 C-41.52974438 41.55880823 -36.35779274 36.14605309 -30.75 30.6875 C-29.13840915 29.11033395 -27.52893457 27.53100172 -25.921875 25.94921875 C-25.21643555 25.26174561 -24.51099609 24.57427246 -23.78417969 23.8659668 C-21.82338432 21.92368593 -21.82338432 21.92368593 -20 19 C-19.34 19 -18.68 19 -18 19 C-17.73050537 18.40525879 -17.46101074 17.81051758 -17.18334961 17.19775391 C-16.00333033 15.00618519 -14.82482198 13.58032551 -13.06640625 11.8359375 C-12.49986328 11.27132812 -11.93332031 10.70671875 -11.34960938 10.125 C-10.46499023 9.25875 -10.46499023 9.25875 -9.5625 8.375 C-8.97662109 7.78976563 -8.39074219 7.20453125 -7.78710938 6.6015625 C-5.26007718 4.10034562 -2.97575385 1.9838359 0 0 Z " fill="#E1EFE6" transform="translate(721,170)"/>
<path d="M0 0 C-0.54599469 4.05730536 -2.63878528 6.12704635 -5.375 9.0625 C-6.16648437 9.91972656 -6.95796875 10.77695313 -7.7734375 11.66015625 C-9.04227811 12.99355191 -10.32191975 14.31729889 -11.6328125 15.609375 C-13.05467169 17.05560892 -14.26305451 18.58184961 -15.5 20.1875 C-16.325 21.115625 -17.15 22.04375 -18 23 C-18.99 23 -19.98 23 -21 23 C-21 23.66 -21 24.32 -21 25 C-21.66 25 -22.32 25 -23 25 C-23.144375 25.804375 -23.28875 26.60875 -23.4375 27.4375 C-24 30 -24 30 -25 31 C-31.46153846 31.35897436 -31.46153846 31.35897436 -35 29 C-35 28.34 -35 27.68 -35 27 C-36.0828125 26.6596875 -36.0828125 26.6596875 -37.1875 26.3125 C-40.54149161 24.74730392 -42.50485584 22.70307284 -45 20 C-46.96822886 18.03177114 -50.34808709 18.33751619 -53 18 C-53.19851563 18.56332031 -53.39703125 19.12664062 -53.6015625 19.70703125 C-55.55181495 22.90479155 -58.3307109 24.62916619 -61.375 26.6875 C-62.653089 27.5770552 -63.93042053 28.4676996 -65.20703125 29.359375 C-65.84721191 29.80345703 -66.48739258 30.24753906 -67.14697266 30.70507812 C-76.54313414 37.27124947 -85.38915187 44.44871458 -94 52 C-94.55896973 52.48903809 -95.11793945 52.97807617 -95.69384766 53.48193359 C-119.95847682 74.86239495 -138.07930634 105.93935491 -144 138 C-144.33 137.01 -144.66 136.02 -145 135 C-146.32 135 -147.64 135 -149 135 C-151.0557553 130.8884894 -148.09356103 125.39580498 -146.75244141 121.22753906 C-142.43639251 108.45024182 -137.19311343 96.4160763 -130 85 C-129.35160156 83.96488281 -128.70320312 82.92976563 -128.03515625 81.86328125 C-121.37441548 71.56221483 -113.54680583 62.41767528 -105.16113281 53.50219727 C-103.01365935 51.21521693 -100.95491574 48.94091161 -99.05078125 46.4453125 C-96.52284521 43.43104972 -93.61265247 41.11975869 -90.5 38.75 C-89.87617432 38.27111328 -89.25234863 37.79222656 -88.60961914 37.29882812 C-87.33656632 36.32277235 -86.06191919 35.34879229 -84.78564453 34.37695312 C-83.21965273 33.16937947 -81.68332344 31.92354015 -80.15234375 30.671875 C-67.351526 20.4312208 -52.26185987 13.2258056 -36.71875 8.203125 C-33.54655548 7.17682677 -30.47479249 6.03418292 -27.375 4.8125 C-18.61328116 1.61058746 -9.32954625 -0.23921913 0 0 Z " fill="#226653" transform="translate(697,186)"/>
<path d="M0 0 C1.63714966 0.0611499 1.63714966 0.0611499 3.30737305 0.12353516 C4.51329102 0.16736328 5.71920898 0.21119141 6.96166992 0.25634766 C8.23461914 0.30791016 9.50756836 0.35947266 10.8190918 0.41259766 C12.04950195 0.45642578 13.27991211 0.50025391 14.54760742 0.54541016 C22.2232367 0.83735168 29.85867929 1.32389875 37.5065918 2.03759766 C36.03748273 5.8021299 36.03748273 5.8021299 33.69067383 6.84301758 C32.61342041 7.05341675 32.61342041 7.05341675 31.5144043 7.26806641 C30.72678711 7.43113281 29.93916992 7.59419922 29.12768555 7.76220703 C28.30397461 7.91496094 27.48026367 8.06771484 26.6315918 8.22509766 C25.0091888 8.55188499 23.38679273 8.87870675 21.7644043 9.20556641 C21.04397949 9.34244873 20.32355469 9.47933105 19.58129883 9.62036133 C17.5374708 10.0313877 15.5247805 10.51614225 13.5065918 11.03759766 C14.0015918 12.02759766 14.0015918 12.02759766 14.5065918 13.03759766 C16.53975356 38.23607538 2.75343815 63.29672857 -11.79418945 82.76025391 C-13.07887923 84.48203354 -14.30177675 86.25015048 -15.4934082 88.03759766 C-14.81020508 88.26962891 -14.12700195 88.50166016 -13.4230957 88.74072266 C-9.82649254 90.33281899 -6.77830185 92.47993452 -3.6184082 94.78759766 C-2.99780518 95.2378833 -2.37720215 95.68816895 -1.73779297 96.15209961 C5.18516493 101.21352881 10.74623243 105.82493195 15.5065918 113.03759766 C17.9815918 112.04759766 17.9815918 112.04759766 20.5065918 111.03759766 C19.8465918 112.35759766 19.1865918 113.67759766 18.5065918 115.03759766 C17.8465918 115.03759766 17.1865918 115.03759766 16.5065918 115.03759766 C16.2384668 115.84197266 15.9703418 116.64634766 15.6940918 117.47509766 C15.3022168 118.32072266 14.9103418 119.16634766 14.5065918 120.03759766 C13.5165918 120.36759766 12.5265918 120.69759766 11.5065918 121.03759766 C11.29647461 120.45494141 11.08635742 119.87228516 10.86987305 119.27197266 C5.06695718 105.55206749 -8.13563249 97.374448 -20.4934082 90.03759766 C-19.5034082 89.04759766 -19.5034082 89.04759766 -18.4934082 88.03759766 C-21.1334082 86.05759766 -23.7734082 84.07759766 -26.4934082 82.03759766 C-23.96768929 78.14708444 -21.3070474 74.56977992 -18.3684082 70.97509766 C-6.83206238 55.68228881 3.34624089 33.57593979 1.5065918 14.03759766 C0.17021555 10.63591266 -0.92819666 8.6028092 -3.4934082 6.03759766 C-3.6809082 3.47509766 -3.6809082 3.47509766 -3.4934082 1.03759766 C-2.4934082 0.03759766 -2.4934082 0.03759766 0 0 Z " fill="#0A232F" transform="translate(829.493408203125,360.96240234375)"/>
<path d="M0 0 C0.125 5.75 0.125 5.75 -1 8 C-3.30277872 8.32766812 -5.61941937 8.55853611 -7.9375 8.75 C-27.54044101 10.80539792 -45.94092257 19.47037698 -61 32 C-61.52980469 32.43940918 -62.05960938 32.87881836 -62.60546875 33.33154297 C-82.21592409 49.82691707 -94.08322985 71.66271718 -100.25073242 96.31347656 C-101.26212787 100.3426196 -102.31367438 104.18642877 -104 108 C-105.98 107.67 -107.96 107.34 -110 107 C-111.68426788 82.57811573 -94.66748588 55.63788645 -79.52807617 37.70556641 C-78.40236225 36.42435789 -77.2070339 35.20490509 -76 34 C-75.34 34 -74.68 34 -74 34 C-73.77828125 33.43796875 -73.5565625 32.8759375 -73.328125 32.296875 C-67.90244383 22.91363815 -55.33503285 16.84119145 -46 12 C-45.09765625 11.52820313 -44.1953125 11.05640625 -43.265625 10.5703125 C-30.18878422 4.19039927 -14.57673119 -0.23476434 0 0 Z " fill="#366C5C" transform="translate(709,243)"/>
<path d="M0 0 C2.00054882 0.11588545 4.00043591 0.24321055 6 0.375 C7.670625 0.47941406 7.670625 0.47941406 9.375 0.5859375 C39.07590167 3.97849739 66.69374497 23.10886322 85 46 C88.32652972 50.4714329 91.20100961 55.18662427 94 60 C94.35578125 60.59538574 94.7115625 61.19077148 95.078125 61.80419922 C103.03135418 75.20726342 108.53448709 90.23263098 108 106 C107 107 107 107 103.9375 107.0625 C102.968125 107.041875 101.99875 107.02125 101 107 C100.88785156 105.88818359 100.88785156 105.88818359 100.7734375 104.75390625 C98.14762671 83.72167672 88.31534579 61.63032536 74 46 C73.41347656 45.27425781 72.82695313 44.54851562 72.22265625 43.80078125 C58.1682869 26.77508646 37.65861949 16.16926692 16.75 10.25 C16.00524414 10.03899658 15.26048828 9.82799316 14.49316406 9.6105957 C9.66985372 8.30396972 4.97076539 7.51731948 0 7 C0 4.69 0 2.38 0 0 Z " fill="#376A5E" transform="translate(732,243)"/>
<path d="M0 0 C2.1416398 0.77670001 3.67665219 1.68942107 5.51171875 3.03173828 C6.43984375 3.70366211 6.43984375 3.70366211 7.38671875 4.38916016 C8.0209375 4.85773438 8.65515625 5.32630859 9.30859375 5.80908203 C10.283125 6.51774414 10.283125 6.51774414 11.27734375 7.24072266 C12.87513037 8.40381733 14.46741178 9.57446804 16.05859375 10.74658203 C12.32369506 19.16915969 4.0255645 25.886438 -2.37890625 32.37158203 C-3.30171387 33.31396729 -3.30171387 33.31396729 -4.24316406 34.27539062 C-4.82291992 34.85627441 -5.40267578 35.4371582 -6 36.03564453 C-6.51876709 36.55852051 -7.03753418 37.08139648 -7.57202148 37.62011719 C-8.94140625 38.74658203 -8.94140625 38.74658203 -10.94140625 38.74658203 C-10.31746974 34.98538727 -8.5936691 32.55698161 -6.37890625 29.49658203 C-5.73824219 28.60455078 -5.09757813 27.71251953 -4.4375 26.79345703 C-3.94378906 26.11798828 -3.45007813 25.44251953 -2.94140625 24.74658203 C-7.53469665 27.31914927 -11.0520336 30.49982124 -14.85546875 34.10205078 C-16.94140625 35.74658203 -16.94140625 35.74658203 -19.94140625 35.74658203 C-19.94140625 32.77658203 -19.94140625 29.80658203 -19.94140625 26.74658203 C-20.96621094 27.15650391 -21.99101563 27.56642578 -23.046875 27.98876953 C-31.171875 31.23876953 -31.171875 31.23876953 -33.13427734 32.01904297 C-34.67819174 32.64061348 -36.21142724 33.28859936 -37.7421875 33.94189453 C-39.94140625 34.74658203 -39.94140625 34.74658203 -42.94140625 34.74658203 C-41.68686489 30.98295794 -40.09580591 30.00918485 -37.00390625 27.55908203 C-35.51117187 26.36798828 -35.51117187 26.36798828 -33.98828125 25.15283203 C-32.9828125 24.35876953 -31.97734375 23.56470703 -30.94140625 22.74658203 C-29.21206094 21.35097003 -27.48288319 19.95515037 -25.75390625 18.55908203 C-22.25173581 15.76175093 -18.70032772 13.05289411 -15.0859375 10.40283203 C-13.39752426 9.09884803 -11.75877872 7.73054499 -10.140625 6.34033203 C-9.16738281 5.50501953 -8.19414063 4.66970703 -7.19140625 3.80908203 C-6.2890625 3.01630859 -5.38671875 2.22353516 -4.45703125 1.40673828 C-1.94140625 -0.25341797 -1.94140625 -0.25341797 0 0 Z " fill="#E0EBE1" transform="translate(647.94140625,210.25341796875)"/>
<path d="M0 0 C1.56324232 0.11534604 3.12559683 0.24275126 4.6875 0.375 C5.99267578 0.47941406 5.99267578 0.47941406 7.32421875 0.5859375 C10 1 10 1 12.39453125 1.97265625 C15.58282802 3.22981075 18.60626359 3.58525582 22 4.0625 C37.27453671 6.60196142 51.69535865 14.32329599 65 22 C63.68 23.65 62.36 25.3 61 27 C60.278125 26.319375 59.55625 25.63875 58.8125 24.9375 C56.24936245 22.75518398 56.24936245 22.75518398 53.67578125 23.1015625 C50.22983635 24.25859509 48.12400082 26.07093594 45.375 28.4375 C37.77385846 34.92450161 37.77385846 34.92450161 34.4375 35.25 C32 35 32 35 30 33 C30 32.01 30 31.02 30 30 C29.45988281 29.78601563 28.91976562 29.57203125 28.36328125 29.3515625 C25.14966701 27.51369386 22.75053814 25.00351869 20.1875 22.375 C19.65922607 21.83883057 19.13095215 21.30266113 18.58666992 20.75024414 C7.46083561 9.38250683 7.46083561 9.38250683 6 5 C4.67532254 4.3162955 3.34136367 3.65035814 2 3 C1.34 2.01 0.68 1.02 0 0 Z " fill="#21644E" transform="translate(746,186)"/>
<path d="M0 0 C0.66 0 1.32 0 2 0 C2.51046875 1.17755859 2.51046875 1.17755859 3.03125 2.37890625 C8.05320028 13.26425062 13.78827324 18.82155554 25 23 C25 23.66 25 24.32 25 25 C24.21496094 25.3403125 23.42992187 25.680625 22.62109375 26.03125 C11.73574938 31.05320028 6.17844446 36.78827324 2 48 C1.34 48 0.68 48 0 48 C-0.3403125 47.21496094 -0.680625 46.42992187 -1.03125 45.62109375 C-6.05320028 34.73574938 -11.78827324 29.17844446 -23 25 C-23 24.34 -23 23.68 -23 23 C-22.21496094 22.6596875 -21.42992187 22.319375 -20.62109375 21.96875 C-9.73574938 16.94679972 -4.17844446 11.21172676 0 0 Z " fill="#7D7D7D" transform="translate(1415,624)"/>
<path d="M0 0 C4.32905481 1.44301827 6.3890006 4.34908967 9 8 C10.61135287 11.73540893 11 13.89869641 11 18 C11.66 18 12.32 18 13 18 C13 16.02 13 14.04 13 12 C16.80042416 15.53832594 19.69079082 18.693057 20.3984375 23.97265625 C20.39070312 24.99230469 20.38296875 26.01195312 20.375 27.0625 C20.38660156 28.59583984 20.38660156 28.59583984 20.3984375 30.16015625 C19.94690215 33.3784523 19.33057723 34.75321881 17 37 C14.30469001 37.8039548 11.83352598 37.81419502 9 38 C9.103125 36.824375 9.20625 35.64875 9.3125 34.4375 C9.34000863 29.29338698 7.32950503 26.80514861 4 23 C1.64723409 22.77318297 1.64723409 22.77318297 -0.625 25.4375 C-3.82060585 29.34532299 -3.48279288 33.17207121 -3 38 C-9.46850394 37.38976378 -9.46850394 37.38976378 -11.875 35.625 C-14.52837905 31.79234137 -14.66367668 27.46922703 -14 23 C-12.56135851 18.89031434 -10.84062615 14.94419888 -9 11 C-8.34 11 -7.68 11 -7 11 C-6.67 12.32 -6.34 13.64 -6 15 C-2.76102323 12.41426224 -2.20698065 9.77377144 -1.3125 5.8125 C-1.06113281 4.72582031 -0.80976562 3.63914062 -0.55078125 2.51953125 C-0.36902344 1.68808594 -0.18726563 0.85664063 0 0 Z " fill="#F16830" transform="translate(718,352)"/>
<path d="M0 0 C1.0415625 0.00902344 2.083125 0.01804688 3.15625 0.02734375 C4.31640625 0.04474609 4.31640625 0.04474609 5.5 0.0625 C5.5 1.0525 5.5 2.0425 5.5 3.0625 C4.82646484 3.18254395 4.15292969 3.30258789 3.45898438 3.42626953 C-30.4807544 9.57452146 -58.35941186 21.58839711 -79.5 50.0625 C-92.1462833 68.61509779 -100.82723857 88.9292798 -104.5 111.0625 C-106.48 111.5575 -106.48 111.5575 -108.5 112.0625 C-110.59461685 87.85803862 -96.3479001 64.00949451 -81.5 46.0625 C-78.5833054 42.64495885 -75.58231598 39.33095939 -72.5 36.0625 C-71.80519531 35.30324219 -71.11039063 34.54398437 -70.39453125 33.76171875 C-64.44379625 27.48580698 -57.74620328 22.6988718 -50.5 18.0625 C-49.7471875 17.57281738 -48.994375 17.08313477 -48.21875 16.57861328 C-32.96174818 6.72207665 -18.57097984 -0.21103386 0 0 Z " fill="#041729" transform="translate(702.5,239.9375)"/>
<path d="M0 0 C16.63893352 -1.71732112 32.81925593 5.00242244 47 13 C48.05574219 13.5671875 49.11148438 14.134375 50.19921875 14.71875 C69.44873673 25.38776389 83.90895539 40.74604431 96 59 C96.48984375 59.71929687 96.9796875 60.43859375 97.484375 61.1796875 C106.83049601 75.70134864 115.25061977 95.49132326 114 113 C112.68 113 111.36 113 110 113 C109.76925781 111.741875 109.53851562 110.48375 109.30078125 109.1875 C104.95801582 86.08662129 98.19685895 64.77704031 82 47 C81.15824219 46.02933594 80.31648437 45.05867188 79.44921875 44.05859375 C60.76912325 22.75297031 34.44287429 8.15773761 6.203125 4.53515625 C3 4 3 4 0 2 C0 1.34 0 0.68 0 0 Z " fill="#041A2A" transform="translate(731,239)"/>
<path d="M0 0 C4.17146933 1.86664489 5.83967726 3.91081768 8 8 C8.25 11.875 8.25 11.875 8 15 C11.43230448 14.73606499 11.43230448 14.73606499 15 14 C17.18994248 10.71508627 17.35277339 9.16904361 17.625 5.3125 C17.69976563 4.31863281 17.77453125 3.32476562 17.8515625 2.30078125 C17.90054688 1.54152344 17.94953125 0.78226562 18 0 C18.33 0 18.66 0 19 0 C19.02694851 1.95825873 19.04637218 3.91662226 19.0625 5.875 C19.07410156 6.96554687 19.08570313 8.05609375 19.09765625 9.1796875 C19 12 19 12 18 14 C18.969375 14.350625 19.93875 14.70125 20.9375 15.0625 C24 17 24 17 25.0625 20.5 C25 24 25 24 23.765625 25.734375 C21.47000669 27.37990671 20.44185176 27.18765175 17.6875 26.75 C16.88441406 26.63269531 16.08132813 26.51539063 15.25390625 26.39453125 C13.5408093 26.09466506 11.83178288 25.77143578 10.125 25.4375 C2.6001844 24.38402582 -4.38496393 24.92063496 -11.7734375 26.5390625 C-14.6399818 27.13248746 -17.09293062 27.42542479 -20 27 C-21.9375 25.375 -21.9375 25.375 -23 23 C-22.9375 19.875 -22.9375 19.875 -22 17 C-19.07881578 14.72796783 -15.62337085 14.36233708 -12 14 C-8.625 14.4375 -8.625 14.4375 -6 15 C-6.12375 13.824375 -6.2475 12.64875 -6.375 11.4375 C-6.42540281 6.72483755 -4.48666587 4.54172757 -1.3125 1.25 C-0.6628125 0.63125 -0.6628125 0.63125 0 0 Z " fill="#4B433F" transform="translate(720,374)"/>
<path d="M0 0 C0.66 0.33 1.32 0.66 2 1 C2 1.66 2 2.32 2 3 C2.99 3 3.98 3 5 3 C5.12004395 3.58265625 5.24008789 4.1653125 5.36376953 4.765625 C10.17046174 27.77263344 16.67410134 46.9807327 32.65234375 64.84765625 C33.83210405 66.17774612 34.92772616 67.58183137 36 69 C35 72 35 72 33.25 73.25 C30.35271255 74.21576248 28.90473506 73.91404674 26 73 C19.97751507 67.14588562 15.92476097 58.65313624 11.75 51.4375 C11.24267334 50.56383789 10.73534668 49.69017578 10.21264648 48.79003906 C5.48087074 40.44710961 1.90862507 31.97941172 -0.25 22.625 C-0.41838379 21.90111084 -0.58676758 21.17722168 -0.76025391 20.43139648 C-2.08485988 14.36062129 -2.9365925 8.19675735 -2 2 C-1.34 1.34 -0.68 0.68 0 0 Z " fill="#3A7061" transform="translate(601,373)"/>
<path d="M0 0 C2.64 0 5.28 0 8 0 C7.24741112 24.08284424 -1.54267786 45.53025303 -14.6875 65.5 C-15.71423828 67.06234375 -15.71423828 67.06234375 -16.76171875 68.65625 C-19 71 -19 71 -22.01953125 72.09375 C-25 72 -25 72 -27.375 70.0625 C-27.91125 69.381875 -28.4475 68.70125 -29 68 C-27.96552734 66.77990234 -27.96552734 66.77990234 -26.91015625 65.53515625 C-11.37495083 46.76784995 -1.42462715 24.51341194 0 0 Z " fill="#366457" transform="translate(832,374)"/>
<path d="M0 0 C3.24409367 1.3240029 5.76890949 3.46032883 8.4609375 5.65234375 C9.06357422 6.13461426 9.66621094 6.61688477 10.28710938 7.11376953 C12.26774386 8.70263573 14.23973122 10.3017997 16.2109375 11.90234375 C17.63271395 13.05090325 19.0545902 14.19933922 20.4765625 15.34765625 C26.42206045 20.15886933 32.34421202 24.99529868 38.2109375 29.90234375 C37.2209375 30.39734375 37.2209375 30.39734375 36.2109375 30.90234375 C33.98804738 29.86933622 31.90157738 28.79230093 29.7734375 27.58984375 C28.61972656 26.95433594 27.46601562 26.31882813 26.27734375 25.6640625 C24.21424337 24.47876534 22.19067744 23.22217037 20.2109375 21.90234375 C19.7159375 23.38734375 19.7159375 23.38734375 19.2109375 24.90234375 C12.7759375 20.94234375 12.7759375 20.94234375 6.2109375 16.90234375 C6.2109375 18.88234375 6.2109375 20.86234375 6.2109375 22.90234375 C2.51439191 22.25001217 -0.09600233 20.61754361 -3.2265625 18.58984375 C-4.15339844 17.99558594 -5.08023438 17.40132812 -6.03515625 16.7890625 C-8.75267337 14.92727417 -11.35022062 13.11987512 -13.7890625 10.90234375 C-13.7890625 9.91234375 -13.7890625 8.92234375 -13.7890625 7.90234375 C-11.1640625 5.96484375 -11.1640625 5.96484375 -7.7890625 3.90234375 C-6.7578125 3.13921875 -5.7265625 2.37609375 -4.6640625 1.58984375 C-1.7890625 -0.09765625 -1.7890625 -0.09765625 0 0 Z " fill="#DFECDE" transform="translate(800.7890625,214.09765625)"/>
<path d="M0 0 C1.63714966 0.0611499 1.63714966 0.0611499 3.30737305 0.12353516 C4.51329102 0.16736328 5.71920898 0.21119141 6.96166992 0.25634766 C8.23461914 0.30791016 9.50756836 0.35947266 10.8190918 0.41259766 C12.04950195 0.45642578 13.27991211 0.50025391 14.54760742 0.54541016 C22.2232367 0.83735168 29.85867929 1.32389875 37.5065918 2.03759766 C36.03748273 5.8021299 36.03748273 5.8021299 33.69067383 6.84301758 C32.61342041 7.05341675 32.61342041 7.05341675 31.5144043 7.26806641 C30.72678711 7.43113281 29.93916992 7.59419922 29.12768555 7.76220703 C28.30397461 7.91496094 27.48026367 8.06771484 26.6315918 8.22509766 C25.0091888 8.55188499 23.38679273 8.87870675 21.7644043 9.20556641 C20.68376709 9.41088989 20.68376709 9.41088989 19.58129883 9.62036133 C17.5374708 10.0313877 15.5247805 10.51614225 13.5065918 11.03759766 C13.8365918 11.69759766 14.1665918 12.35759766 14.5065918 13.03759766 C14.57609721 14.57783762 14.59111537 16.12094753 14.5690918 17.66259766 C14.56006836 18.47986328 14.55104492 19.29712891 14.54174805 20.13916016 C14.53014648 20.76564453 14.51854492 21.39212891 14.5065918 22.03759766 C14.1765918 22.03759766 13.8465918 22.03759766 13.5065918 22.03759766 C13.0115918 19.56259766 13.0115918 19.56259766 12.5065918 17.03759766 C11.8465918 19.34759766 11.1865918 21.65759766 10.5065918 24.03759766 C9.13226723 20.22002942 9.8268414 16.96504437 10.5065918 13.03759766 C6.0515918 13.53259766 6.0515918 13.53259766 1.5065918 14.03759766 C1.0528418 13.08884766 0.5990918 12.14009766 0.1315918 11.16259766 C-1.29579074 8.03446087 -1.29579074 8.03446087 -3.4934082 6.03759766 C-3.6809082 3.47509766 -3.6809082 3.47509766 -3.4934082 1.03759766 C-2.4934082 0.03759766 -2.4934082 0.03759766 0 0 Z " fill="#1B302A" transform="translate(829.493408203125,360.96240234375)"/>
<path d="M0 0 C0.33 0 0.66 0 1 0 C1 1.98 1 3.96 1 6 C2.98 6 4.96 6 7 6 C7.66 4.68 8.32 3.36 9 2 C9.47523642 3.66332747 9.94941435 5.32696538 10.41796875 6.9921875 C10.97145832 8.90154077 11.57812824 10.79524033 12.1875 12.6875 C12.9814499 15.92437267 12.93147546 16.96775009 12 20 C-13.9701529 20.20638953 -13.9701529 20.20638953 -25 19 C-24 16 -24 16 -22.20581055 15.04858398 C-21.05786011 14.65135132 -21.05786011 14.65135132 -19.88671875 14.24609375 C-19.05076172 13.94896484 -18.21480469 13.65183594 -17.35351562 13.34570312 C-16.03383789 12.89614258 -16.03383789 12.89614258 -14.6875 12.4375 C-12.96155177 11.83399472 -11.23626636 11.2285898 -9.51171875 10.62109375 C-8.74303467 10.3573999 -7.97435059 10.09370605 -7.18237305 9.82202148 C-3.98417307 8.62963663 -3.98417307 8.62963663 -1 7 C-0.18129815 3.43793339 -0.18129815 3.43793339 0 0 Z " fill="#1B302C" transform="translate(598,344)"/>
<path d="M0 0 C1.32 0 2.64 0 4 0 C4.09796875 0.81339844 4.1959375 1.62679688 4.296875 2.46484375 C7.1879934 24.621777 13.5119083 42.17126355 25.64428711 60.99511719 C26.19221924 61.84750977 26.74015137 62.69990234 27.3046875 63.578125 C27.79952637 64.33512695 28.29436523 65.09212891 28.80419922 65.87207031 C29.96453873 67.93689661 30.55480631 69.68551734 31 72 C25.68590333 68.06772639 22.50242658 63.73225972 19.0625 58.125 C18.54107422 57.28437012 18.01964844 56.44374023 17.48242188 55.57763672 C7.2339468 38.77586656 -0.77069953 20.03818771 0 0 Z " fill="#03152A" transform="translate(594,373)"/>
<path d="M0 0 C0.33 0 0.66 0 1 0 C2.37372371 20.14794776 -6.47171601 41.65610372 -18 58 C-18.99 58.66 -19.98 59.32 -21 60 C-21.66 59.34 -22.32 58.68 -23 58 C-22.40832031 56.97261719 -21.81664062 55.94523437 -21.20703125 54.88671875 C-14.30453405 42.82451359 -8.84727145 31.58600807 -5.49707031 18.00097656 C-4.63570273 14.53350667 -3.72434976 11.07946778 -2.8125 7.625 C-2.48894531 6.37976563 -2.16539062 5.13453125 -1.83203125 3.8515625 C-1 1 -1 1 0 0 Z " fill="#041C2A" transform="translate(842,377)"/>
<path d="M0 0 C4.39131785 1.51077449 6.31736792 4.91662276 8.75 8.625 C9.16121094 9.23601562 9.57242188 9.84703125 9.99609375 10.4765625 C11.00551256 11.97895328 12.0038647 13.48876909 13 15 C12.34 16.32 11.68 17.64 11 19 C10.34 19 9.68 19 9 19 C7.61767557 17.37373596 6.28062485 15.7074998 5 14 C4.67 16.31 4.34 18.62 4 21 C3.360625 20.67 2.72125 20.34 2.0625 20 C0.23205433 18.92728775 0.23205433 18.92728775 -1 19 C-1 16.69 -1 14.38 -1 12 C-1.66 12 -2.32 12 -3 12 C-3.28875 12.598125 -3.5775 13.19625 -3.875 13.8125 C-5 16 -5 16 -7 19 C-8.32 18.67 -9.64 18.34 -11 18 C-10.40149598 15.01034358 -9.51087951 13.00221502 -7.71484375 10.546875 C-7.26689453 9.928125 -6.81894531 9.309375 -6.35742188 8.671875 C-5.88884766 8.03765625 -5.42027344 7.4034375 -4.9375 6.75 C-4.46505859 6.1003125 -3.99261719 5.450625 -3.50585938 4.78125 C-2.34276471 3.18346338 -1.17211399 1.59118197 0 0 Z " fill="#393F41" transform="translate(720,276)"/>
<path d="M0 0 C8.55265387 0.57311598 17.07155644 3.57890337 24.7890625 7.25390625 C24.4590625 7.91390625 24.1290625 8.57390625 23.7890625 9.25390625 C13.2290625 9.25390625 2.6690625 9.25390625 -8.2109375 9.25390625 C-6.92619592 4.11493991 -5.70835892 0.45139091 0 0 Z " fill="#276654" transform="translate(836.2109375,352.74609375)"/>
<path d="M0 0 C4.03250212 -0.14630393 7.61129521 -0.12924402 10.83984375 2.49609375 C12.64471161 4.60672746 14.32104207 6.78798199 16 9 C20.80226677 14.59538161 25.69668672 19.72534422 31.34375 24.46484375 C33.41574579 26.38534928 34.68469664 28.51553811 36 31 C36.66 31.33 37.32 31.66 38 32 C38 32.66 38 33.32 38 34 C33.82715599 33.49551109 32.01120287 32.45432229 29.1875 29.375 C26.67969884 26.66935525 24.09457152 24.18472625 21.30078125 21.78125 C16.66119627 17.76347618 12.32699246 13.47448983 8 9.125 C7.22527344 8.35414063 6.45054687 7.58328125 5.65234375 6.7890625 C4.92144531 6.056875 4.19054687 5.3246875 3.4375 4.5703125 C2.77621094 3.90789551 2.11492188 3.24547852 1.43359375 2.56298828 C0 1 0 1 0 0 Z " fill="#113530" transform="translate(743,190)"/>
<path d="M0 0 C4 2 8 4 12 6 C12 6.66 12 7.32 12 8 C12.5775 8.28875 13.155 8.5775 13.75 8.875 C14.4925 9.24625 15.235 9.6175 16 10 C16.63164063 10.27070313 17.26328125 10.54140625 17.9140625 10.8203125 C20.38983386 12.22046784 21.80671449 13.82126141 23.625 16 C25.3733168 18.07660336 27.07962765 20.07962765 29 22 C29 23.32 29 24.64 29 26 C24.23546618 25.52267876 21.86721522 23.54609608 18.3125 20.4375 C17.25889519 19.52349004 16.20418953 18.61074766 15.1484375 17.69921875 C14.6234668 17.24337402 14.09849609 16.7875293 13.55761719 16.31787109 C11.25478714 14.36948918 8.84087733 12.57191508 6.4375 10.75 C2.69431794 7.79390759 0.57533318 5.50095194 -1 1 C-0.67 0.67 -0.34 0.34 0 0 Z " fill="#173735" transform="translate(809,215)"/>
<path d="M0 0 C1.14339844 0.08378906 2.28679688 0.16757812 3.46484375 0.25390625 C4.95571002 0.35704794 6.44659653 0.45989747 7.9375 0.5625 C9.06961914 0.64661133 9.06961914 0.64661133 10.22460938 0.73242188 C12.14745958 0.86176157 14.07389548 0.93516912 16 1 C16.33 0.67 16.66 0.34 17 0 C18.41570123 -0.08651611 19.835595 -0.10704904 21.25390625 -0.09765625 C22.53491211 -0.09282227 22.53491211 -0.09282227 23.84179688 -0.08789062 C24.73962891 -0.07951172 25.63746094 -0.07113281 26.5625 -0.0625 C27.46419922 -0.05798828 28.36589844 -0.05347656 29.29492188 -0.04882812 C31.53001314 -0.03700225 33.76497437 -0.0205222 36 0 C35.52433594 1.13501953 35.52433594 1.13501953 35.0390625 2.29296875 C33.92602177 5.19273275 33.42822208 7.93107512 33 11 C32.01 11 31.02 11 30 11 C29.34 10.34 28.68 9.68 28 9 C26.50256881 10.49743119 26.66797307 11.98824239 26.4375 14.0625 C26.293125 15.361875 26.14875 16.66125 26 18 C25.67 18 25.34 18 25 18 C25 14.7 25 11.4 25 8 C23.94941406 7.74605469 22.89882813 7.49210937 21.81640625 7.23046875 C14.43140971 5.4264196 7.16759364 3.55985487 0 1 C0 0.67 0 0.34 0 0 Z " fill="#245B4D" transform="translate(573,365)"/>
<path d="M0 0 C4.17146933 1.86664489 5.83967726 3.91081768 8 8 C8.5 14 8.5 14 7 17 C3.04 17 -0.92 17 -5 17 C-6.62963648 13.74072704 -6.69908894 10.50804089 -6 7 C-4.29219918 4.34618706 -2.28069965 2.17209491 0 0 Z " fill="#62372F" transform="translate(720,374)"/>
<path d="M0 0 C1.32 0 2.64 0 4 0 C4 5.61 4 11.22 4 17 C2.68 17 1.36 17 0 17 C0 14.69 0 12.38 0 10 C-1.20293701 10.23771118 -1.20293701 10.23771118 -2.43017578 10.48022461 C-6.67687409 11.09855457 -10.83181211 11.22928976 -15.1171875 11.31640625 C-15.97434357 11.33718735 -16.83149963 11.35796844 -17.71463013 11.37937927 C-20.43467714 11.44441261 -23.15481517 11.50354341 -25.875 11.5625 C-27.72657166 11.60572924 -29.57813434 11.6493449 -31.4296875 11.69335938 C-35.95303331 11.80004621 -40.47647007 11.90144194 -45 12 C-45 11.67 -45 11.34 -45 11 C-35.37865495 8.95344531 -26.02457059 8.75858377 -16.25 8.875 C-14.76302693 8.88506027 -13.27604719 8.89418068 -11.7890625 8.90234375 C-8.19256677 8.924092 -4.596328 8.95844982 -1 9 C-1 8.01 -1 7.02 -1 6 C-5.29 6 -9.58 6 -14 6 C-14 5.67 -14 5.34 -14 5 C-9.38 5 -4.76 5 0 5 C0 3.35 0 1.7 0 0 Z " fill="#344241" transform="translate(795,376)"/>
<path d="M0 0 C2.84809926 0.30790262 4.58286148 0.65478191 6.8125 2.5 C8.64353855 6.354818 8.18701299 9.76103886 8 14 C2.72 14 -2.56 14 -8 14 C-7.05125 12.80375 -6.1025 11.6075 -5.125 10.375 C-2.60790149 7.03865717 -1.0250987 4.10039479 0 0 Z " fill="#091826" transform="translate(722,444)"/>
<path d="M0 0 C1.875 0.1875 1.875 0.1875 4 1 C6.53124675 5.17655714 6.16019214 9.27433194 6 14 C1.38 14.33 -3.24 14.66 -8 15 C-7.06202234 11.24808936 -6.15070402 9.46663704 -4 6.375 C-1.84472887 3.27909695 -1.84472887 3.27909695 0 0 Z " fill="#132533" transform="translate(765,439)"/>
<path d="M0 0 C7.52102123 -0.77625219 14.30681292 0.55848599 21.5625 2.375 C22.90199707 2.70697388 22.90199707 2.70697388 24.26855469 3.0456543 C30.73383954 4.73383954 30.73383954 4.73383954 33 7 C30 9 30 9 28 10 C26.0826791 9.28126659 24.16706012 8.55735741 22.26416016 7.80126953 C18.65243403 6.52310637 14.96570912 6.00106341 11.1875 5.4375 C3.39811216 4.26540811 3.39811216 4.26540811 0 2 C0 1.34 0 0.68 0 0 Z " fill="#092431" transform="translate(731,239)"/>
<path d="M0 0 C1.32 0.33 2.64 0.66 4 1 C4.33 2.65 4.66 4.3 5 6 C9.29 6 13.58 6 18 6 C18 6.66 18 7.32 18 8 C18.66 8.66 19.32 9.32 20 10 C14.72 10 9.44 10 4 10 C4 12.31 4 14.62 4 17 C2.68 17 1.36 17 0 17 C0 11.39 0 5.78 0 0 Z " fill="#474648" transform="translate(643,376)"/>
<path d="M0 0 C3.13108623 1.36518076 4.99383017 2.83217855 7.1875 5.4375 C7.78046875 6.13746094 8.3734375 6.83742187 8.984375 7.55859375 C12.67261488 12.02593857 16.35186483 16.49980605 20 21 C19.01 21.33 18.02 21.66 17 22 C16.27296875 21.25556641 16.27296875 21.25556641 15.53125 20.49609375 C12.06339608 16.98155718 8.57300499 13.57680139 4.8125 10.375 C1.4594948 7.49816122 -1.28382588 4.48009809 -4 1 C-2.68 1.33 -1.36 1.66 0 2 C0 1.34 0 0.68 0 0 Z " fill="#E3EDE6" transform="translate(793,243)"/>
<path d="M0 0 C0.33 0.66 0.66 1.32 1 2 C1.99 2.33 2.98 2.66 4 3 C1.21624295 5.85786389 -1.57723598 8.70581784 -4.38012695 11.54492188 C-5.33240279 12.51229259 -6.28196984 13.48233757 -7.22875977 14.45507812 C-8.58937548 15.85204345 -9.96056764 17.238683 -11.33203125 18.625 C-12.56530151 19.88183594 -12.56530151 19.88183594 -13.82348633 21.1640625 C-16 23 -16 23 -19 23 C-18.25 20.625 -18.25 20.625 -17 18 C-15.66666667 17.33333333 -14.33333333 16.66666667 -13 16 C-12.7525 15.278125 -12.505 14.55625 -12.25 13.8125 C-10.59613201 10.09129702 -8.09947637 8.27677246 -4.97265625 5.74609375 C-2.98402488 3.98585964 -1.51623639 2.1721631 0 0 Z " fill="#1A4540" transform="translate(696,189)"/>
<path d="M0 0 C0 0.99 0 1.98 0 3 C-12.87 5.475 -12.87 5.475 -26 8 C-26 6.35 -26 4.7 -26 3 C-17.40450999 -0.22330875 -9.05811667 -0.13587175 0 0 Z " fill="#071F2F" transform="translate(708,240)"/>
<path d="M0 0 C6.22452965 1.20122502 10.15077631 2.85795476 15 7 C15 7.99 15 8.98 15 10 C8.61861061 12.20894248 8.61861061 12.20894248 5.94140625 11.3046875 C3.67151372 9.77924665 2.60466097 8.32911048 1.1875 6 C0.74792969 5.29875 0.30835938 4.5975 -0.14453125 3.875 C-0.42683594 3.25625 -0.70914063 2.6375 -1 2 C-0.67 1.34 -0.34 0.68 0 0 Z " fill="#1A433E" transform="translate(786,227)"/>
<path d="M0 0 C2.47407292 0.32987639 3.6637767 0.57972087 5.25 2.5625 C6.34127575 6.10914618 6.12349053 9.29528399 6 13 C2.7 12.67 -0.6 12.34 -4 12 C-3.71125 11.319375 -3.4225 10.63875 -3.125 9.9375 C-1.87402645 6.67106907 -0.92552045 3.37153877 0 0 Z " fill="#0A141F" transform="translate(681,444)"/>
<path d="M0 0 C0.33 0.66 0.66 1.32 1 2 C-3.93473549 7.87789312 -9.22816548 13.25581652 -14.7421875 18.58203125 C-17.18534371 20.86214236 -17.18534371 20.86214236 -18 24 C-16.906875 23.484375 -15.81375 22.96875 -14.6875 22.4375 C-11 21 -11 21 -8 22 C-10.05927956 22.98592155 -12.12256688 23.96347494 -14.1875 24.9375 C-15.91033203 25.75541016 -15.91033203 25.75541016 -17.66796875 26.58984375 C-20.51466736 27.79460131 -22.96027845 28.54776271 -26 29 C-21.52974438 22.55880823 -16.35779274 17.14605309 -10.75 11.6875 C-9.13840915 10.11033395 -7.52893457 8.53100172 -5.921875 6.94921875 C-5.21643555 6.26174561 -4.51099609 5.57427246 -3.78417969 4.8659668 C-1.82338432 2.92368593 -1.82338432 2.92368593 0 0 Z " fill="#C8DBCE" transform="translate(701,189)"/>
<path d="M0 0 C-2.40517789 5.46631338 -4.90484256 10.1545856 -10.5625 12.4375 C-14 13 -14 13 -18 13 C-18.06058594 12.37351563 -18.12117187 11.74703125 -18.18359375 11.1015625 C-18.26738281 10.28429687 -18.35117187 9.46703125 -18.4375 8.625 C-18.51871094 7.81289062 -18.59992187 7.00078125 -18.68359375 6.1640625 C-18.89090114 3.95727195 -18.89090114 3.95727195 -20 2 C-19.01 2 -18.02 2 -17 2 C-17 4.97 -17 7.94 -17 11 C-11.91955915 8.40793834 -8.3943325 5.63481839 -4.578125 1.390625 C-3 0 -3 0 0 0 Z " fill="#3E6B5E" transform="translate(645,235)"/>
<path d="M0 0 C0.66 0 1.32 0 2 0 C2.30898834 5.25280185 1.66508219 7.59236407 -1 12 C-1.84152051 15.30488054 -2.44481681 18.63624304 -3 22 C-3.33 22 -3.66 22 -4 22 C-4.08160748 20.10489301 -4.13946459 18.20875496 -4.1875 16.3125 C-4.23970703 14.72888672 -4.23970703 14.72888672 -4.29296875 13.11328125 C-4 10 -4 10 -1 5 C-7.6 5 -14.2 5 -21 5 C-21 4.67 -21 4.34 -21 4 C-14.07 4 -7.14 4 0 4 C0 2.68 0 1.36 0 0 Z " fill="#173E3A" transform="translate(610,360)"/>
<path d="M0 0 C1.75171509 0.07069702 1.75171509 0.07069702 3.53881836 0.14282227 C5.42890625 0.21533203 5.42890625 0.21533203 7.35717773 0.28930664 C8.69767719 0.34583669 10.03817193 0.40247878 11.37866211 0.45922852 C12.72304457 0.51243456 14.06744554 0.56517504 15.41186523 0.61743164 C18.71350868 0.74760396 22.01488653 0.88258462 25.31616211 1.02172852 C25.31616211 1.35172852 25.31616211 1.68172852 25.31616211 2.02172852 C12.94116211 2.51672852 12.94116211 2.51672852 0.31616211 3.02172852 C0.00228588 6.04736174 0.00228588 6.04736174 1.87866211 7.95922852 C3.31616211 10.02172852 3.31616211 10.02172852 3.00366211 12.27172852 C2.77678711 12.84922852 2.54991211 13.42672852 2.31616211 14.02172852 C1.65616211 13.03172852 0.99616211 12.04172852 0.31616211 11.02172852 C-0.38508789 10.23797852 -1.08633789 9.45422852 -1.80883789 8.64672852 C-3.88302143 5.74287156 -4.16699764 4.50047868 -3.68383789 1.02172852 C-2.68383789 0.02172852 -2.68383789 0.02172852 0 0 Z " fill="#184138" transform="translate(829.683837890625,360.978271484375)"/>
<path d="M0 0 C0.66 0 1.32 0 2 0 C2 0.99 2 1.98 2 3 C1.34 3 0.68 3 0 3 C-0.2784375 4.670625 -0.2784375 4.670625 -0.5625 6.375 C-1.036875 7.57125 -1.51125 8.7675 -2 10 C-5.4375 11.3125 -5.4375 11.3125 -9 12 C-9.99 12.66 -10.98 13.32 -12 14 C-13.32 14 -14.64 14 -16 14 C-16 12.02 -16 10.04 -16 8 C-15.67 8 -15.34 8 -15 8 C-15 9.65 -15 11.3 -15 13 C-9.20880185 9.2770869 -4.1398691 5.58882328 0 0 Z " fill="#3D7064" transform="translate(720,211)"/>
<path d="M0 0 C3.54822446 0.57881268 5.18422803 1.82692359 7.671875 4.37890625 C8.33574219 5.05244141 8.99960937 5.72597656 9.68359375 6.41992188 C10.36550781 7.12697266 11.04742188 7.83402344 11.75 8.5625 C12.44738281 9.27341797 13.14476562 9.98433594 13.86328125 10.71679688 C15.5824658 12.47130714 17.29425872 14.23243352 19 16 C18.34 16.66 17.68 17.32 17 18 C14.16266225 15.19151503 11.33081251 12.37756077 8.5 9.5625 C7.68917969 8.76005859 6.87835937 7.95761719 6.04296875 7.13085938 C5.27597656 6.36708984 4.50898437 5.60332031 3.71875 4.81640625 C3.00654297 4.10943604 2.29433594 3.40246582 1.56054688 2.67407227 C0 1 0 1 0 0 Z " fill="#2B524C" transform="translate(749,196)"/>
<path d="M0 0 C1.32 0.33 2.64 0.66 4 1 C-0.93654267 9.50765864 -0.93654267 9.50765864 -5.375 11.5625 C-6.24125 11.706875 -7.1075 11.85125 -8 12 C-8.66 11.34 -9.32 10.68 -10 10 C-9.21625 9.9175 -8.4325 9.835 -7.625 9.75 C-4.91265367 9.28748634 -4.91265367 9.28748634 -3.875 7.25 C-3.58625 6.5075 -3.2975 5.765 -3 5 C-2.01120795 3.32665961 -1.01351664 1.65848177 0 0 Z " fill="#0A2A3A" transform="translate(818,436)"/>
<path d="M0 0 C0.66 0.33 1.32 0.66 2 1 C1.01 2.175625 1.01 2.175625 0 3.375 C-2.20201441 5.71512812 -2.20201441 5.71512812 -2 8 C-2.66 8 -3.32 8 -4 8 C-4.33 8.99 -4.66 9.98 -5 11 C-7.89558441 12.4477922 -9.74188938 13 -13 13 C-11.69435407 9.0830622 -9.71750027 7.92080562 -6.5 5.375 C-5.4996875 4.57835937 -4.499375 3.78171875 -3.46875 2.9609375 C-2.6540625 2.31382812 -1.839375 1.66671875 -1 1 C-0.67 0.67 -0.34 0.34 0 0 Z " fill="#D0DED5" transform="translate(618,232)"/>
<path d="M0 0 C4.29 0 8.58 0 13 0 C13 0.66 13 1.32 13 2 C13.66 2.66 14.32 3.32 15 4 C10.05 4 5.1 4 0 4 C0.66 3.34 1.32 2.68 2 2 C1.34 1.34 0.68 0.68 0 0 Z " fill="#373B3F" transform="translate(648,382)"/>
<path d="M0 0 C0.33 0 0.66 0 1 0 C1.55353075 12.66970387 1.55353075 12.66970387 -2 18 C-2.33 18 -2.66 18 -3 18 C-3.37634203 11.19796625 -2.77471079 6.24309927 0 0 Z " fill="#011324" transform="translate(842,377)"/>
<path d="M0 0 C2.78349856 1.0558098 4.00409146 2.00518252 5.875 4.375 C6.24625 5.24125 6.6175 6.1075 7 7 C6.34 8.32 5.68 9.64 5 11 C2.03 8.03 -0.94 5.06 -4 2 C-3.34 1.67 -2.68 1.34 -2 1 C-1.34 1.33 -0.68 1.66 0 2 C0 1.34 0 0.68 0 0 Z " fill="#DAEAE2" transform="translate(793,243)"/>
<path d="M0 0 C6.25882353 -0.36108597 6.25882353 -0.36108597 9.4375 1.1875 C11 3 11 3 11.25 5.6875 C11.1675 6.450625 11.085 7.21375 11 8 C10.34 8 9.68 8 9 8 C8.608125 7.505 8.21625 7.01 7.8125 6.5 C5.03989283 4.20542855 2.4681874 4.80368751 -1 5 C-0.34 4.67 0.32 4.34 1 4 C0.67 2.68 0.34 1.36 0 0 Z " fill="#104739" transform="translate(645,205)"/>
<path d="M0 0 C0.33 0 0.66 0 1 0 C1 2.31 1 4.62 1 7 C2.32 7 3.64 7 5 7 C5 7.66 5 8.32 5 9 C4.15695312 8.98839844 3.31390625 8.97679687 2.4453125 8.96484375 C1.34960938 8.95582031 0.25390625 8.94679688 -0.875 8.9375 C-2.51082031 8.92009766 -2.51082031 8.92009766 -4.1796875 8.90234375 C-6.95177546 8.80255697 -6.95177546 8.80255697 -9 10 C-8.375 7.5625 -8.375 7.5625 -7 5 C-3.875 4.1875 -3.875 4.1875 -1 4 C-0.67 2.68 -0.34 1.36 0 0 Z " fill="#1B4F45" transform="translate(840,345)"/>
<path d="M0 0 C2.91796875 -0.390625 2.91796875 -0.390625 6.1875 -0.25 C7.27417969 -0.21390625 8.36085938 -0.1778125 9.48046875 -0.140625 C10.31191406 -0.09421875 11.14335938 -0.0478125 12 0 C12 0.99 12 1.98 12 3 C7.05 3.33 2.1 3.66 -3 4 C-2.01 2.68 -1.02 1.36 0 0 Z " fill="#386052" transform="translate(782,382)"/>
<path d="M0 0 C0.66 1.32 1.32 2.64 2 4 C0.38405168 6.04119788 -1.2856382 8.04072937 -3 10 C-3.66 10 -4.32 10 -5 10 C-4.50769231 3.47692308 -4.50769231 3.47692308 -1.9375 1.0625 C-0.9784375 0.5365625 -0.9784375 0.5365625 0 0 Z " fill="#505152" transform="translate(760,442)"/>
<path d="M0 0 C3.53586014 3.17320782 5.58578031 5.16743695 6 10 C1.25 9.25 1.25 9.25 -1 7 C-0.625 3.375 -0.625 3.375 0 0 Z " fill="#1C433E" transform="translate(832,231)"/>
<path d="M0 0 C0.66 0.33 1.32 0.66 2 1 C0.4422692 4.82352106 -1.91595258 7.29205593 -5 10 C-5.99 10 -6.98 10 -8 10 C-6.52307692 5.32307692 -6.52307692 5.32307692 -3.875 3.6875 C-3.25625 3.460625 -2.6375 3.23375 -2 3 C-2 2.34 -2 1.68 -2 1 C-1.34 0.67 -0.68 0.34 0 0 Z " fill="#0E3130" transform="translate(685,202)"/>
<path d="M0 0 C0.99 0 1.98 0 3 0 C3 3.3 3 6.6 3 10 C1.68 10 0.36 10 -1 10 C-1.125 3.375 -1.125 3.375 0 0 Z " fill="#3D4041" transform="translate(796,383)"/>
<path d="M0 0 C5.09857034 0.85162933 7.72235651 4.2394187 11 8 C12.9375 10.9375 12.9375 10.9375 14 13 C11 13 11 13 9.31640625 11.42578125 C8.44822266 10.37970703 8.44822266 10.37970703 7.5625 9.3125 C6.9540625 8.58675781 6.345625 7.86101562 5.71875 7.11328125 C1.62162162 2.07567568 1.62162162 2.07567568 0 0 Z " fill="#356159" transform="translate(777,224)"/>
<path d="M0 0 C1.65 0 3.3 0 5 0 C3.02 2.97 1.04 5.94 -1 9 C-1.99 8.34 -2.98 7.68 -4 7 C-2.68 4.69 -1.36 2.38 0 0 Z " fill="#041E2F" transform="translate(823,428)"/>
<path d="M0 0 C0.33 0.99 0.66 1.98 1 3 C7.6 3.33 14.2 3.66 21 4 C21 4.33 21 4.66 21 5 C13.41 5 5.82 5 -2 5 C-1 1 -1 1 0 0 Z " fill="#215A48" transform="translate(830,357)"/>
<path d="M0 0 C2.97 0.33 5.94 0.66 9 1 C8.67 2.65 8.34 4.3 8 6 C4.74456771 5.65120368 3.98126893 4.97866739 1.75 2.4375 C1.1725 1.633125 0.595 0.82875 0 0 Z " fill="#1D403B" transform="translate(743,190)"/>
<path d="M0 0 C0.99 0.33 1.98 0.66 3 1 C3 3.97 3 6.94 3 10 C2.67 10 2.34 10 2 10 C1.67 8.35 1.34 6.7 1 5 C0.01 8.465 0.01 8.465 -1 12 C-2.37520651 8.17998192 -1.74051523 4.92473073 -1 1 C-0.67 0.67 -0.34 0.34 0 0 Z " fill="#052E38" transform="translate(841,373)"/>
<path d="M0 0 C4.75 1.875 4.75 1.875 7 3 C6.67 4.32 6.34 5.64 6 7 C5.34 7 4.68 7 4 7 C3.67 6.34 3.34 5.68 3 5 C0.98330173 3.86649466 0.98330173 3.86649466 -1 3 C-0.67 2.01 -0.34 1.02 0 0 Z " fill="#303A40" transform="translate(692,431)"/>
<path d="M0 0 C0.66 0.33 1.32 0.66 2 1 C1.360625 1.598125 0.72125 2.19625 0.0625 2.8125 C-2.20310389 4.90810337 -2.20310389 4.90810337 -3 8 C-4.32 8 -5.64 8 -7 8 C-7 7.34 -7 6.68 -7 6 C-7.66 5.67 -8.32 5.34 -9 5 C-7.88625 4.54625 -6.7725 4.0925 -5.625 3.625 C-2.03800992 2.27534014 -2.03800992 2.27534014 0 0 Z " fill="#19473E" transform="translate(788,216)"/>
<path d="M0 0 C1.65 0.33 3.3 0.66 5 1 C5 2.32 5 3.64 5 5 C3.35 4.67 1.7 4.34 0 4 C0 2.68 0 1.36 0 0 Z " fill="#113E35" transform="translate(661,216)"/>
<path d="M0 0 C1.875 0.125 1.875 0.125 4 1 C5.25 4.0625 5.25 4.0625 6 7 C5.01 7.495 5.01 7.495 4 8 C3.67 6.35 3.34 4.7 3 3 C2.34 3 1.68 3 1 3 C1 4.32 1 5.64 1 7 C0.34 6.67 -0.32 6.34 -1 6 C-0.67 4.02 -0.34 2.04 0 0 Z " fill="#1B2732" transform="translate(681,444)"/>
<path d="M0 0 C2.88437779 1.29299694 4.87219421 2.65941363 7 5 C6.67 5.66 6.34 6.32 6 7 C4.02 6.34 2.04 5.68 0 5 C0 3.35 0 1.7 0 0 Z " fill="#06221F" transform="translate(743,185)"/>
<path d="M0 0 C0.99 0 1.98 0 3 0 C4.4783226 2.95664519 4.06032783 5.74229737 4 9 C3.34 9 2.68 9 2 9 C1.34 6.03 0.68 3.06 0 0 Z " fill="#7A513D" transform="translate(727,361)"/>
<path d="M0 0 C0.33 0 0.66 0 1 0 C0.88541307 1.43836751 0.75790884 2.87570966 0.625 4.3125 C0.55539062 5.11300781 0.48578125 5.91351563 0.4140625 6.73828125 C0 9 0 9 -2 12 C-2.66 12 -3.32 12 -4 12 C-4.33 10.68 -4.66 9.36 -5 8 C-3.68 8 -2.36 8 -1 8 C-0.67 5.36 -0.34 2.72 0 0 Z " fill="#736C53" transform="translate(716,355)"/>
<path d="M0 0 C2.97 0 5.94 0 9 0 C8.01 1.485 8.01 1.485 7 3 C3.875 3.1875 3.875 3.1875 1 3 C0.67 2.01 0.34 1.02 0 0 Z " fill="#031722" transform="translate(731,239)"/>
<path d="M0 0 C0.33 0.99 0.66 1.98 1 3 C-1.64 5.64 -4.28 8.28 -7 11 C-7.66 10.67 -8.32 10.34 -9 10 C-6.03 6.7 -3.06 3.4 0 0 Z " fill="#426E62" transform="translate(663,223)"/>
<path d="M0 0 C0.66 0.66 1.32 1.32 2 2 C1.25 3.9375 1.25 3.9375 0 6 C-2.125 6.75 -2.125 6.75 -4 7 C-3.43628586 3.73045798 -2.50037734 2.17424117 0 0 Z " fill="#09342C" transform="translate(717,168)"/>
<path d="M0 0 C0.33 0.66 0.66 1.32 1 2 C1.99 2.33 2.98 2.66 4 3 C1.4345406 5.5654594 -0.47686668 5.54046087 -4 6 C-2.68 4.02 -1.36 2.04 0 0 Z " fill="#143E39" transform="translate(696,189)"/>
<path d="M0 0 C1.32 0.66 2.64 1.32 4 2 C3.34 3.32 2.68 4.64 2 6 C1.01 6 0.02 6 -1 6 C-0.67 4.02 -0.34 2.04 0 0 Z " fill="#05211D" transform="translate(698,185)"/>
<path d="M0 0 C2 1.1875 2 1.1875 4 3 C4.25 5.6875 4.25 5.6875 4 8 C2 6.8125 2 6.8125 0 5 C-0.25 2.3125 -0.25 2.3125 0 0 Z " fill="#07362D" transform="translate(724,167)"/>
<path d="M0 0 C0.99 0.33 1.98 0.66 3 1 C2.67 1.66 2.34 2.32 2 3 C1.01 3 0.02 3 -1 3 C-0.67 2.01 -0.34 1.02 0 0 Z M-2 3 C-2 3.99 -2 4.98 -2 6 C-4 7.6875 -4 7.6875 -6 9 C-4.84826645 6.53199953 -3.95216435 4.95216435 -2 3 Z " fill="#753D32" transform="translate(720,374)"/>
<path d="M0 0 C3.3 0.33 6.6 0.66 10 1 C10 1.66 10 2.32 10 3 C2.25 2.25 2.25 2.25 0 0 Z " fill="#114139" transform="translate(835,351)"/>
<path d="M0 0 C0.99 0 1.98 0 3 0 C2.67 1.65 2.34 3.3 2 5 C0.68 4.67 -0.64 4.34 -2 4 C-2 2 -2 2 0 0 Z " fill="#417265" transform="translate(812,263)"/>
<path d="M0 0 C2.02054804 1.64169528 4.02043058 3.30911778 6 5 C6 5.33 6 5.66 6 6 C4.02 6 2.04 6 0 6 C0 4.02 0 2.04 0 0 Z " fill="#F4FAF2" transform="translate(770,220)"/>
<path d="M0 0 C1.32 0.66 2.64 1.32 4 2 C3.34 2.66 2.68 3.32 2 4 C1.34 3.67 0.68 3.34 0 3 C-0.33 3.66 -0.66 4.32 -1 5 C-1.99 3.68 -2.98 2.36 -4 1 C-2.68 1.33 -1.36 1.66 0 2 C0 1.34 0 0.68 0 0 Z " fill="#D2E1D9" transform="translate(793,243)"/>
<path d="M0 0 C2.64 1.65 5.28 3.3 8 5 C7.01 5.99 6.02 6.98 5 8 C0 2.25 0 2.25 0 0 Z " fill="#517F6D" transform="translate(770,228)"/>
<path d="M0 0 C1.98 0 3.96 0 6 0 C5.67 1.65 5.34 3.3 5 5 C3.35 3.35 1.7 1.7 0 0 Z " fill="#163D37" transform="translate(770,216)"/>
<path d="M0 0 C2.97 0.495 2.97 0.495 6 1 C6 1.66 6 2.32 6 3 C4.68 3 3.36 3 2 3 C2 3.66 2 4.32 2 5 C1.01 4.67 0.02 4.34 -1 4 C-0.34 4 0.32 4 1 4 C0.67 2.68 0.34 1.36 0 0 Z " fill="#0C3A30" transform="translate(645,205)"/>
<path d="M0 0 C-0.33 0.99 -0.66 1.98 -1 3 C-1.99 3 -2.98 3 -4 3 C-4 3.66 -4 4.32 -4 5 C-5.65 5.33 -7.3 5.66 -9 6 C-3.2 0 -3.2 0 0 0 Z " fill="#AFC9B7" transform="translate(632,223)"/>
<path d="M0 0 C1.9375 0.375 1.9375 0.375 4 1 C4.33 1.66 4.66 2.32 5 3 C4.01 4.485 4.01 4.485 3 6 C0 2.25 0 2.25 0 0 Z " fill="#C0D5C7" transform="translate(766,221)"/>
</svg>
